<svg xmlns="http://www.w3.org/2000/svg" viewBox="0 0 500 500"><defs><clipPath id="a"><path fill="#e5e5e5" stroke="#263238" stroke-linecap="round" stroke-linejoin="round" d="M348.42 301.82l-290.8 18.37V80.08l290.8 16.04v205.7z"/></clipPath></defs><path d="M479.58 213.15c-1-6.19-2.19-12.27-3.49-18.19C465.49 146.77 441 95.64 393 76.18 337.78 53.8 259.4 60 210 103.71c-38 33.6-115 53.88-158 104.82-44.57 52.81-53.88 151.78 4 191.73 41.17 28.41 92.07 6 137.92-3.39 26.11-5.34 48.71-2.32 74.45 0 44.73 4 91.06 7 136.17-3 22.28-5 42.09-14.06 54.65-34.72 26.38-43.45 28.2-98.15 20.39-146z" fill="#92e3a9"/><path d="M479.58 213.15c-1-6.19-2.19-12.27-3.49-18.19C465.49 146.77 441 95.64 393 76.18 337.78 53.8 259.4 60 210 103.71c-38 33.6-115 53.88-158 104.82-44.57 52.81-53.88 151.78 4 191.73 41.17 28.41 92.07 6 137.92-3.39 26.11-5.34 48.71-2.32 74.45 0 44.73 4 91.06 7 136.17-3 22.28-5 42.09-14.06 54.65-34.72 26.38-43.45 28.2-98.15 20.39-146z" fill="#fff" opacity=".7"/><path d="M49 323h54a6 6 0 016 6h0a6 6 0 01-6 6H42a6 6 0 01-6-6h0a6 6 0 016-6h1.5M91 342.85h12a6 6 0 016 6h0a6 6 0 01-6 6H42a6 6 0 01-6-6h0a6 6 0 016-6h43.5M103 374.71H42a6 6 0 01-6-6h0a6 6 0 016-6h61a6 6 0 016 6h0a6 6 0 01-6 6z" fill="none" stroke="#263238" stroke-miterlimit="10"/><path fill="none" stroke="#263238" stroke-miterlimit="10" d="M85.5 303H116v82.5H75.5M42.5 385.5h-13V303h49M68.5 385.5h-21M34 315h77M125 54.15h54a6 6 0 016 6h0a6 6 0 01-6 6h-61a6 6 0 01-6-6h0a6 6 0 016-6h1.5M167 74h12a6 6 0 016 6h0a6 6 0 01-6 6h-61a6 6 0 01-6-6h0a6 6 0 016-6h43.5"/><rect x="112" y="93.85" width="73" height="12" rx="6" fill="none" stroke="#263238" stroke-miterlimit="10"/><path fill="none" stroke="#263238" stroke-miterlimit="10" d="M161.5 34.15H192v82.5h-40.5M118.5 116.65h-13v-82.5h49M144.5 116.65h-21M110 46.15h77M376.05 73.33h-31.53a2.41 2.41 0 01-2.41-2.41v-9.16a2.41 2.41 0 012.41-2.41h42.25a2.41 2.41 0 012.41 2.41v3.59"/><path d="M375.75 88.23V68.64a3.15 3.15 0 013.14-3.14h41.84a3.15 3.15 0 013.14 3.14V92.1M423.87 111.42v24.44a3.15 3.15 0 01-3.14 3.14h-41.84a3.15 3.15 0 01-3.14-3.14V92.93M378.72 76.95h42.15M398.86 89.66h22.01M378.72 89.66h16.7M378.72 102.37h42.15M413.32 115.08h7.55M378.72 115.08h30.8M378.72 127.8h42.15M350.62 66.02h22.97M214.1 356.18h-43.46a3.33 3.33 0 01-3.33-3.32v-12.63a3.33 3.33 0 013.33-3.33h58.23a3.33 3.33 0 013.33 3.33v4.95" fill="none" stroke="#263238" stroke-miterlimit="10"/><path d="M213.69 376.73v-27a4.33 4.33 0 014.33-4.33h57.67a4.33 4.33 0 014.33 4.33v32.35M280 408.69v33.69a4.33 4.33 0 01-4.33 4.33H218a4.33 4.33 0 01-4.33-4.33V383.2M217.78 361.17h58.11M245.54 378.69h30.35M217.78 378.69h23.03M217.78 396.22h58.11M265.48 413.74h10.41M217.78 413.74h42.46M217.78 431.26h58.11M179.05 346.11h31.66" fill="none" stroke="#263238" stroke-miterlimit="10"/><path d="M288.66 410.43a9.59 9.59 0 01-6.68-2.7l-6.19-6.14a2.24 2.24 0 013.11-3.22l1.22 1.14-6.23-12.81a2.7 2.7 0 01-.08-2.07 2.65 2.65 0 014.87-.2L281 389a2.74 2.74 0 011.66-1 3.6 3.6 0 012.46.71 2.68 2.68 0 011.74-1 3.23 3.23 0 012.08.5 1.75 1.75 0 011.82-1.1 2.51 2.51 0 012 1.32l4.4 8.09a9.6 9.6 0 01-8.55 13.95zm-11.29-11.67h-.16a1.24 1.24 0 00-.72 2.11l6.19 6.13a8.59 8.59 0 0013.64-10.07l-4.38-8.07a1.51 1.51 0 00-1.2-.8c-.41 0-.85.07-1 1l-.15.91-.68-.62a2.75 2.75 0 00-1.9-.69 2 2 0 00-1.35 1l-.32.51-.45-.41a3 3 0 00-2.07-.8 2.16 2.16 0 00-1.45 1.2l-.48.83-3.12-6.16a1.65 1.65 0 00-3 1.41l8.45 17.55-5-4.72a1.21 1.21 0 00-.85-.31z" fill="#263238"/><path d="M283.24 395.86a.51.51 0 01-.46-.31l-2.3-5.41a.51.51 0 01.27-.66.5.5 0 01.65.27l2.3 5.41a.5.5 0 01-.26.66.45.45 0 01-.2.04zM287.25 394.67a.5.5 0 01-.46-.3l-2-4.75a.5.5 0 01.26-.66.52.52 0 01.66.27l2 4.75a.49.49 0 01-.27.65.41.41 0 01-.19.04zM291.18 393.63a.48.48 0 01-.45-.29l-1.93-4.15a.49.49 0 01.24-.66.5.5 0 01.67.24l1.93 4.15a.49.49 0 01-.46.71z" fill="#263238"/><path fill="none" stroke="#263238" stroke-linecap="round" stroke-linejoin="round" d="M264.099 54.354l9.9-9.9 9.899 9.9-9.9 9.9zM436.197 163.346l9.9-9.9 9.899 9.9-9.9 9.9zM133.199 403.355l9.9-9.9 9.899 9.9-9.9 9.899zM250.197 67.997l5.403-5.403 5.402 5.403-5.402 5.402zM245.201 331.001l5.402-5.402 5.403 5.402-5.403 5.403z"/><circle cx="200" cy="375" r="4" fill="none" stroke="#263238" stroke-linecap="round" stroke-linejoin="round"/><circle cx="328" cy="331" r="4" fill="none" stroke="#263238" stroke-linecap="round" stroke-linejoin="round"/><circle cx="439" cy="89" r="4" fill="none" stroke="#263238" stroke-linecap="round" stroke-linejoin="round"/><circle cx="23" cy="101.35" r="4" fill="none" stroke="#263238" stroke-linecap="round" stroke-linejoin="round"/><g><path fill="#263238" d="M144.34 78.35l-8.75-14.79-80.53-5.3v267.48l295.02-19.43V90.39L144.34 78.35z"/><path fill="#e5e5e5" d="M348.42 301.82l-290.8 18.37V80.08l290.8 16.04v205.7z"/><g clip-path="url(#a)"><path opacity=".17" d="M349.64 303.3l-5.79.37V94.1l5.79.33V303.3z"/><path opacity=".17" d="M349.64 301.6l-5.79.36v-81.15l5.79-.1v80.89z"/><path fill="#92e3a9" stroke="#263238" stroke-miterlimit="10" d="M348.75 104.55L56.27 89.83V76.76l292.48 16.6v11.19z"/></g><path fill="none" stroke="#263238" stroke-linecap="round" stroke-linejoin="round" d="M348.42 301.82l-290.8 18.37V80.08l290.8 16.04v205.7z"/><path opacity=".2" d="M334 133.64l-45.37-1.72h-.05l-47.77-1.81-.05-.01-50.36-1.9-.06-.01-53.16-2.01h-.06l-56.23-2.13V311.03l253-13.87V149.72h.11v-16.08z"/><path fill="#92e3a9" stroke="#263238" stroke-miterlimit="10" d="M157.66 137.75l-56.67-1.56v-18.47l56.67 2.07v17.96z"/><path fill="#7a7a7a" d="M141.53 129.96l-23.74-.74v-3.45l23.74.78v3.41z"/><path fill="#92e3a9" stroke="#263238" stroke-miterlimit="10" d="M211.32 139.22l-53.6-1.47V119.8l53.6 1.95v17.47zM262.15 140.61l-50.77-1.39v-17.47l50.77 1.85v17.01z"/><path fill="#fff" stroke="#263238" stroke-linecap="round" stroke-linejoin="round" d="M310.36 141.93v-16.57l-48.16-1.75v17l-161.21-4.42v169.26l255.07-14.21V143.19l-45.7-1.26z"/><path fill="#92e3a9" stroke="#263238" stroke-miterlimit="10" d="M356.16 143.19l-45.74-1.26v-16.57l45.74 1.67v16.16z"/><path fill="#fff" stroke="#263238" stroke-linecap="round" stroke-linejoin="round" d="M348.95 275.65l-129.21 6.05V170.83l129.21 1.43v103.39z"/><path fill="#92e3a9" d="M287.13 172l-32.09-.34v13.24l32.09.12V172z"/><path fill="none" stroke="#263238" stroke-linecap="round" stroke-linejoin="round" d="M329.32 200.49l9.86-.05M270.7 200.76l52.62-.24M227.94 200.96l37.01-.17M297.08 207.59l42.1-.35M273.24 207.79l17-.14M227.94 208.18l37.65-.32M252.69 215.09l86.49-1.06M227.94 215.39l16.27-.2M318.5 221.16l20.68-.34M277.68 221.81l33.53-.54M227.94 222.61l42.76-.69M265.59 229.08l73.59-1.46M227.94 229.82l30.57-.6M329.32 234.35l9.86-.23M270.7 235.72l52.62-1.23M227.94 236.72l37.01-.86M297.08 242.06l42.1-1.15M273.24 242.7l17-.46M227.94 243.94l37.65-1.03M252.69 250.39l86.49-2.68M227.94 251.15l16.27-.5M318.5 255.22l20.68-.72M277.68 256.64l33.53-1.17M227.94 258.37l42.76-1.49M265.59 264.13l73.59-2.84M227.94 265.58l30.57-1.18M223.56 185.15l124.28.44M255.04 171.66v13.24M287.13 172.01v13.01M318.15 172.34v12.8"/><path fill="#263238" d="M281.91 179.71l-20.5-.14v-3.21l20.5.17v3.18z"/><path fill="#ccc" d="M248.62 179.49l-21.24-.14v-3.27l21.24.18v3.23zM313.42 179.92l-19.81-.13v-3.16l19.81.17v3.12zM342.95 180.12l-19.16-.13v-3.11l19.16.16v3.08z"/><path fill="#fff" stroke="#263238" stroke-linecap="round" stroke-linejoin="round" d="M210.46 282.13l-98.57 4.61V150.41l98.57 2.02v129.7z"/><path fill="none" stroke="#263238" stroke-miterlimit="10" d="M210.46 202.03l-24.48-15.77-22.21 49.18-21.99-17.35-29.89 68.65 98.57-4.61v-80.1zM149.17 179.49a15 15 0 00-14.82-15 14.8 14.8 0 00-15 14.82 15 15 0 0015 15 14.82 14.82 0 0014.82-14.82z"/><path fill="#7a7a7a" d="M195.64 131.65l-22.46-.7v-3.37l22.46.74v3.33zM247.21 133.25l-21.28-.66v-3.28l21.28.7v3.24zM297 134.8l-20.17-.63v-3.18l20.17.66v3.15zM343.38 136.24l-19.15-.6v-3.1l19.15.63v3.07z"/></g><g><ellipse cx="396.75" cy="458.45" rx="58.25" ry="8.45" fill="#92e3a9"/><ellipse cx="396.75" cy="458.45" rx="58.25" ry="8.45" fill="#fff" opacity=".5"/><path d="M367.15 141s-3.21 11.93-2.53 13.07 2.3.69 1.38 3-3 6.65-2.52 8.48 3 3.21 3 3.21 1.15 8.26 2.29 9.86 7.34.69 7.34.69l.46 6.2 18.35-1.15-.69-11-.92-34z" fill="#fff" stroke="#263238" stroke-linecap="round" stroke-linejoin="round"/><path d="M389.17 131.86c-1.14.17-9.87 0-16.75 1.14s-8.94 1.61-8.71 4.59-.46 4.13 2.06 5.27a10.26 10.26 0 003.44 1.15s-.69 3.21-.92 5.51 3.9 4.81 3.9 4.81-.23 3.44.23 4.59 1.61 1.38 2.3.46 1.14-5.28 1.83-3.44 3.44 15.59 5.28 17.2 10.09.69 12.38.23 6.65-10.09 8.72-15.83 1.14-15.82-1.84-20.41-8.94-5.73-11.92-5.27z" fill="#263238" stroke="#263238" stroke-linecap="round" stroke-linejoin="round"/><path d="M374.58 155.82a58.44 58.44 0 01.56 6.44c0 2.52-1.68 3.92-.56 5s2 .56 2.8-1.4a16.54 16.54 0 001.12-7.28c-.28-1.92-.56-6.12-3.92-2.76zM372.19 184.84l-5 9.17s12.61-3.67 19.49-3.67a94.09 94.09 0 0114.45 1.38l-3.21-8.95s-17.47-1.83-25.73 2.07zM419.67 305.79s0 8-.69 11.47-5.27 8.71-7.11 9.63-4.13 1.15-4.59 0-1.14-.69-.45-6.65 3.17-17.43 3.17-17.43z" fill="#fff" stroke="#263238" stroke-linecap="round" stroke-linejoin="round"/><path d="M421.28 298.45l-1.61 7.34a17.92 17.92 0 01-6 .23 4.56 4.56 0 01-3.67-3.21l.69-6.42z" fill="#fff" stroke="#263238" stroke-linecap="round" stroke-linejoin="round"/><path d="M420.15 199.75s3.21 19.49 5.27 33.94 2.51 28.21 2.05 35.09-3.21 29-4.13 30.59-7.11 2.29-9.63 1.14S410 298 410 293.63s2.29-45 2.29-45z" fill="#fff" stroke="#263238" stroke-linecap="round" stroke-linejoin="round"/><path d="M370.6 451.57a5.61 5.61 0 00-2.6.66c-1.36.72-7.26 2.34-11.06 3.69-5.93 2.11-10.56 1-10.08 2.52s9.73 4.66 15.08 4.74 7.93-1.26 10.49-1.21.67 1.29 4.93 1.77 5.65.5 7.14-1.83 2.32-2.93 1.85-5.87V456a5.44 5.44 0 00-5.45-4.46z" fill="#263238" stroke="#263238" stroke-linecap="round" stroke-linejoin="round"/><path d="M403.74 448.73a3.91 3.91 0 00-2.24.63c-1.16.73-6.25 2.27-9.51 3.6-5.1 2.07-9.17.69-8.7 2.37s5.94 4 10.6 4.23a38.39 38.39 0 007.56-.28c5-.28 1.83 1.5 3.64 2.24a12.17 12.17 0 003.92.56c5.32.28 6 .7 7.19-1.75s1.92-3.07 1.41-6.26V454c-.47-2.84-2.58-4.92-4.89-5z" fill="#263238" stroke="#263238" stroke-linecap="round" stroke-linejoin="round"/><path d="M356.14 282.4s.92 32.11.92 42.89 2.75 59.49 6.42 77.15 5.73 42.89 5.73 45.64-.92 3.44.92 5.28 8.71 5.27 11.24 4.12 3.9-5.5 3.9-5.5 0-23.85.68-39.45-.45-36-.45-36 8.94 41.29 11.46 49.54 4.59 23.24 5.05 26.22 2.48 3.08 5 3.08c3.08 0 6.89-.4 8.26-2.69s-1.6-26.38-1.6-36-7.57-69.36-6.88-84 5-40.13 3.67-47.7a84.43 84.43 0 01-1.38-13.61s-47.21-5.49-52.94 11.03z" fill="#5e5e5e" stroke="#263238" stroke-linecap="round" stroke-linejoin="round"/><path d="M369 192.87s-10.26 4.35-15.07 6.65a72.29 72.29 0 01-6.88 3s7.73 73 7.73 76.91-.23 4.13 1.15 5.28 8.49 1.67 21.11 1.44 28.43-2.82 29.58-2.82a5.92 5.92 0 004.58-2.75c1.38-2.06 8.74-79.9 9-80.81s-18.14-7.57-19.75-8-10.83-6.7-31.45 1.1z" fill="#fff" stroke="#263238" stroke-linecap="round" stroke-linejoin="round"/><path d="M405 239.63c-6.56 9.44-16.92 23.17-25 28.37M411.4 230s-1.19 1.91-3.18 4.89M392.41 262.63s-9.08 8.26-16.51 12.39" fill="none" stroke="#263238" stroke-linecap="round" stroke-linejoin="round"/><path d="M405.22 412.3a29.87 29.87 0 008.52 6.24v-1.88c0-9.63-7.57-69.36-6.88-84 .12-2.67.37-5.7.68-8.91a11.69 11.69 0 00-.91-1.87 163.08 163.08 0 01-10.09-18.11l11.91 11.39c.1-.86.2-1.73.29-2.59-3.17-5.7-7.34-13.52-7.62-15.91l-14 7.56s-1.83 54.45-1.6 72.34c0 0 1.35 6.25 3.15 14.36 4.33 9.82 12.06 16.73 16.55 21.38z" fill="#263238" stroke="#263238" stroke-linecap="round" stroke-linejoin="round"/><path d="M358.9 286a55.36 55.36 0 003 8.32 9.72 9.72 0 004.13 4.36M373.69 444.62a54.86 54.86 0 01-.12 10.57M372.67 431.48c.21 3 .4 5.74.57 7.93M366.73 312.2c.57 23 1.94 73.48 3.17 84.73.89 8.16 1.71 19.43 2.38 29M365.92 286.35c-.23.69.54 14.39.54 14.39s.05 2.33.15 6.26" fill="none" stroke="#263238" stroke-linecap="round" stroke-linejoin="round"/><path d="M318 220.14s.89-1.55 2.21-4.2 1.11-6 1.11-7.73 2-2.43 2-4.42-2.87-1.76-4.41-.44-2 5.3-2 5.3-2.45-4.14-3.75-7.06c-1.18-2.63-2.8-7.16-5-7.82s-2.1 2.07-1.87 2.73a26 26 0 001.36 3.75c.51 1 1.54 4 1.54 4s-3.09-2.43-4.19-2.43a1.62 1.62 0 00-1.33 2.43s-2.65 1.1-2 2.87.89 2.43.89 2.43-.67.88 0 3.09 3.53 6 4.63 7.73a9.59 9.59 0 002.43 2.65z" fill="#fff" stroke="#263238" stroke-linecap="round" stroke-linejoin="round"/><path d="M303.68 204.24a18 18 0 002.45 3M302.58 209.54a10 10 0 001.5 2" fill="none" stroke="#263238" stroke-linecap="round" stroke-linejoin="round"/><path d="M311.18 231.63l-3.9-8.49a9.88 9.88 0 016.66-4.13c4.81-.92 5.5 0 5.5 0l2.52 8.72s-8.25.69-10.78 3.9z" fill="#fff" stroke="#263238" stroke-linecap="round" stroke-linejoin="round"/><path d="M334.58 247.22s-7.11-12.15-8.95-16.51-4.35-5.51-8.48-5.05-7.8 4.82-7.8 8 14.68 34.86 15.37 36.7 5.73 2.29 9.17.23 3.9-13.27.69-23.37z" fill="#fff" stroke="#263238" stroke-linecap="round" stroke-linejoin="round"/><path d="M347 202.5s-9.46 27.89-11.06 32.24-9 24.18-11 28.08-.22 10.55 6 11.47 7.11-.92 10.32-5.51 11.13-16.06 11.13-16.06-3.53-44.95-5.39-50.22z" fill="#fff" stroke="#263238" stroke-linecap="round" stroke-linejoin="round"/></g></svg>