<svg xmlns="http://www.w3.org/2000/svg" viewBox="0 0 500 500"><path d="M415.56 249.94c-92-53.14-240.77-53.13-332.2 0s-91 139.29 1.07 192.43 240.78 53.14 332.22 0 90.95-139.29-1.09-192.43z" fill="#f5f5f5"/><path d="M302.9 231.24a14 14 0 0112.68 0c3.5 2 3.48 5.32 0 7.35a14 14 0 01-12.68 0c-3.54-2.03-3.52-5.32 0-7.35zM316 258.64c5.41-3.13 14.16-3.13 19.54 0s5.35 8.19-.07 11.32-14.16 3.12-19.54 0-5.34-8.19.07-11.32zM290.72 250.32a11.31 11.31 0 0110.26 0c2.82 1.64 2.8 4.3 0 5.94a11.29 11.29 0 01-10.25 0c-2.86-1.64-2.85-4.26-.01-5.94zM403.12 289.78c-22.18-12.52-58-12.52-80.07 0s-21.92 32.83.26 45.35 58 12.52 80.07 0 21.92-32.82-.26-45.35zM321.55 371.13c-24.29-13.71-63.53-13.71-87.66 0s-24 35.94.28 49.65 63.54 13.71 87.66 0 24-35.94-.28-49.65zM190.76 405.49c-19.47-11-50.93-11-70.27 0s-19.24 28.81.23 39.8 50.93 11 70.27 0 19.24-28.81-.23-39.8zM32 374.93a16.25 16.25 0 0114.75 0c4.06 2.36 4 6.18 0 8.54a16.25 16.25 0 01-14.75 0c-4.11-2.36-4.09-6.18 0-8.54zM65.75 331.07c-6.46-3.73-16.9-3.73-23.31 0s-6.39 9.78.07 13.51 16.9 3.73 23.32 0 6.38-9.78-.08-13.51zM73.93 395.48c5-2.87 13-2.87 17.95 0s4.91 7.52-.06 10.39-13 2.87-17.95 0-4.87-7.52.06-10.39z" fill="#e0e0e0"/><path d="M60.29 403.48a13.3 13.3 0 0112 0c3.31 1.93 3.3 5 0 7a13.3 13.3 0 01-12 0c-3.35-1.95-3.29-5.07 0-7z" fill="#e0e0e0"/><path d="M383.8 413.79a15.72 15.72 0 0114.29 0c3.93 2.29 3.91 6 0 8.28a15.76 15.76 0 01-14.28 0c-3.99-2.29-3.97-5.99-.01-8.28zM367.38 424.9a10.59 10.59 0 019.59 0c2.64 1.53 2.62 4 0 5.55a10.53 10.53 0 01-9.59 0c-2.67-1.53-2.65-4.02 0-5.55zM445.51 388.65c-6.8-3.93-17.8-3.93-24.57 0s-6.73 10.3.08 14.23 17.81 3.93 24.57 0 6.73-10.3-.08-14.23z" opacity=".1"/><path fill="#e0e0e0" d="M299.62 298.62L117.5 404.46l-11.58-6.69 182.13-105.84 11.57 6.69z"/><g><path d="M69.77 309.62l-15.64.45-15.64-.45c-.67 10.56 1.39 21.32 4.23 26.58a7.21 7.21 0 003.1 3.15c4.61 2.66 12.07 2.66 16.66 0a6.92 6.92 0 003.09-3.24c2.83-5.28 4.87-15.99 4.2-26.49z" fill="#fff"/><path d="M65.15 303.21c6.13 3.54 6.16 9.27.08 12.81s-16 3.54-22.12 0-6.11-9.27-.11-12.81 16-3.54 22.15 0z" fill="#ebebeb"/><path d="M62.73 304.62c4.78 2.76 4.81 7.23.06 10s-12.48 2.76-17.26 0-4.8-7.23-.05-10 12.52-2.76 17.25 0z" fill="#e0e0e0"/><path d="M62.73 304.62c4.78 2.76 4.81 7.23.06 10s-12.48 2.76-17.26 0-4.8-7.23-.05-10 12.52-2.76 17.25 0z" opacity=".15"/><path d="M46.15 277.61c-2.54-3.16-5.49-6-7.83-9.32-1.59-2.26-2.92-5-2.25-7.72a6.91 6.91 0 015.48-4.82 10.51 10.51 0 017.35 1.64 22.67 22.67 0 015.55 5.29 55.2 55.2 0 0111.62 39.41 8.18 8.18 0 01-1.45 4.52A4.52 4.52 0 0160 308c-4.26-1.26-3.7-7-4.39-10.4a47.76 47.76 0 00-4.9-13.29 46 46 0 00-4.56-6.7z" fill="#ba68c8"/><path d="M46.15 277.61c-2.54-3.16-5.49-6-7.83-9.32-1.59-2.26-2.92-5-2.25-7.72a6.91 6.91 0 015.48-4.82 10.51 10.51 0 017.35 1.64 22.67 22.67 0 015.55 5.29 55.2 55.2 0 0111.62 39.41 8.18 8.18 0 01-1.45 4.52A4.52 4.52 0 0160 308c-4.26-1.26-3.7-7-4.39-10.4a47.76 47.76 0 00-4.9-13.29 46 46 0 00-4.56-6.7z" fill="#fff" opacity=".2"/><path d="M60.21 303.75a.37.37 0 01-.3-.35c-.3-6.83-2.52-30.18-18.61-43.42a.38.38 0 010-.53.39.39 0 01.53-.05c16.32 13.44 18.57 37.05 18.88 44a.37.37 0 01-.36.39z" fill="#f0f0f0"/><path d="M62.56 304.49a11.4 11.4 0 01-5.22 7.25 14.78 14.78 0 01-7.91 1.32 34.81 34.81 0 01-8-1.9c-1.29-.44-2.72-1-2.86-2.62a2.88 2.88 0 01.91-2.25 9.91 9.91 0 01.84-.72.83.83 0 00-.44-1.48 19.35 19.35 0 01-2.29-.28 10 10 0 01-4.8-2.17 7.89 7.89 0 01-2.22-3.29 3.06 3.06 0 01.32-3.22 3.38 3.38 0 011.78-.77c.57-.13 1.14-.23 1.72-.32a.76.76 0 00.17-1.46l-2.42-1a4.58 4.58 0 01-1.85-1.14 4.05 4.05 0 01-.46-3.35c.29-1.52.82-3 1.18-4.49a9.77 9.77 0 00.16-4.59 38.61 38.61 0 0113.59.91 9.8 9.8 0 013.71 1.62c1.51 1.21 1.9 3 1.74 5a.35.35 0 00.66.18l1.55-2.86a1.85 1.85 0 012.41-.77 11.2 11.2 0 013.55 2.79 6.19 6.19 0 011.52 4.54 40.65 40.65 0 01-1.13 6.66.61.61 0 001 .65l.07-.05a2.13 2.13 0 011.47-.43c1.37.17 1.72 1.56 1.81 2.75a22.58 22.58 0 01-.56 5.49z" fill="#ba68c8"/><path d="M62.56 304.49a11.4 11.4 0 01-5.22 7.25 14.78 14.78 0 01-7.91 1.32 34.81 34.81 0 01-8-1.9c-1.29-.44-2.72-1-2.86-2.62a2.88 2.88 0 01.91-2.25 9.91 9.91 0 01.84-.72.83.83 0 00-.44-1.48 19.35 19.35 0 01-2.29-.28 10 10 0 01-4.8-2.17 7.89 7.89 0 01-2.22-3.29 3.06 3.06 0 01.32-3.22 3.38 3.38 0 011.78-.77c.57-.13 1.14-.23 1.72-.32a.76.76 0 00.17-1.46l-2.42-1a4.58 4.58 0 01-1.85-1.14 4.05 4.05 0 01-.46-3.35c.29-1.52.82-3 1.18-4.49a9.77 9.77 0 00.16-4.59 38.61 38.61 0 0113.59.91 9.8 9.8 0 013.71 1.62c1.51 1.21 1.9 3 1.74 5a.35.35 0 00.66.18l1.55-2.86a1.85 1.85 0 012.41-.77 11.2 11.2 0 013.55 2.79 6.19 6.19 0 011.52 4.54 40.65 40.65 0 01-1.13 6.66.61.61 0 001 .65l.07-.05a2.13 2.13 0 011.47-.43c1.37.17 1.72 1.56 1.81 2.75a22.58 22.58 0 01-.56 5.49z" opacity=".2"/><path d="M62.56 304.49a11.4 11.4 0 01-5.22 7.25 14.78 14.78 0 01-7.91 1.32 34.81 34.81 0 01-8-1.9c-1.29-.44-2.72-1-2.86-2.62a2.88 2.88 0 01.91-2.25 9.91 9.91 0 01.84-.72.83.83 0 00-.44-1.48 19.35 19.35 0 01-2.29-.28 10 10 0 01-4.8-2.17 7.89 7.89 0 01-2.22-3.29 3.06 3.06 0 01.32-3.22 3.38 3.38 0 011.78-.77c.57-.13 1.14-.23 1.72-.32a.76.76 0 00.17-1.46l-2.42-1a4.58 4.58 0 01-1.85-1.14 4.05 4.05 0 01-.46-3.35c.29-1.52.82-3 1.18-4.49a9.77 9.77 0 00.16-4.59 38.61 38.61 0 0113.59.91 9.8 9.8 0 013.71 1.62c1.51 1.21 1.9 3 1.74 5a.35.35 0 00.66.18l1.55-2.86a1.85 1.85 0 012.41-.77 11.2 11.2 0 013.55 2.79 6.19 6.19 0 011.52 4.54 40.65 40.65 0 01-1.13 6.66.61.61 0 001 .65l.07-.05a2.13 2.13 0 011.47-.43c1.37.17 1.72 1.56 1.81 2.75a22.58 22.58 0 01-.56 5.49z" fill="#fff" opacity=".2"/><path d="M55.36 311.36a55.33 55.33 0 00-3.66-10.59.34.34 0 00-.13-.28c-.08-.18-.17-.36-.25-.55a34.06 34.06 0 013.62-12.13.37.37 0 00-.65-.37 34.67 34.67 0 00-3.57 11.27A49.6 49.6 0 0035.07 280a.37.37 0 00-.52.09.38.38 0 00.1.52c7.86 5.47 12.82 13.05 15.83 19.34a22.87 22.87 0 00-13-1.75.37.37 0 00-.29.44.38.38 0 00.29.29h.14c.07 0 7.19-1.3 13.34 2.13a53.68 53.68 0 013.62 10.5.37.37 0 00.3.29h.14a.38.38 0 00.34-.49z" fill="#f0f0f0"/><path d="M449.75 366l-16.48.49-16.48-.49c-.71 11.14 1.46 22.48 4.46 28a7.47 7.47 0 003.26 3.32c4.86 2.81 12.72 2.81 17.55 0a7.27 7.27 0 003.26-3.41c2.99-5.52 5.14-16.8 4.43-27.91z" fill="#fff"/><path d="M444.88 359.28c6.46 3.73 6.5 9.78.08 13.51s-16.85 3.72-23.31 0-6.49-9.78-.07-13.51 16.85-3.72 23.3 0z" fill="#ebebeb"/><path d="M442.33 360.77c5 2.91 5.07 7.62.06 10.53s-13.15 2.91-18.19 0-5.06-7.62-.05-10.53 13.14-2.91 18.18 0z" fill="#e0e0e0"/><path d="M442.33 360.77c5 2.91 5.07 7.62.06 10.53s-13.15 2.91-18.19 0-5.06-7.62-.05-10.53 13.14-2.91 18.18 0z" opacity=".15"/><path d="M460.37 295.7c-37.15 12.16-37.48 37-29.11 54.71 2.11 3.58 8.5 5.5 14.07-16.5l-9.76 1.25 11.37-5.77 2.95-8.82-9.48.7 12-5.06a177.59 177.59 0 017.96-20.51z" fill="#ba68c8"/><path d="M460.37 295.7c-37.15 12.16-37.48 37-29.11 54.71 2.11 3.58 8.5 5.5 14.07-16.5l-9.76 1.25 11.37-5.77 2.95-8.82-9.48.7 12-5.06a177.59 177.59 0 017.96-20.51z" opacity=".2"/><path d="M460.37 295.7c-37.15 12.16-37.48 37-29.11 54.71 2.11 3.58 8.5 5.5 14.07-16.5l-9.76 1.25 11.37-5.77 2.95-8.82-9.48.7 12-5.06a177.59 177.59 0 017.96-20.51z" fill="#fff" opacity=".2"/><path d="M449.86 301.92c-19.59 14.86-21.35 31.91-15.82 49.7-1.96-15.62-4.04-31.51 15.82-49.7z" fill="#fff"/><path d="M397.46 320.94c36.61 5.16 41.05 28.25 36.19 46.12-1.37 3.68-7 6.54-15.84-13l9.29-.46-11.54-3.48-4.22-7.73 9-.92-12.05-2.71a169.31 169.31 0 00-10.83-17.82z" fill="#ba68c8"/><path d="M397.46 320.94c36.61 5.16 41.05 28.25 36.19 46.12-1.37 3.68-7 6.54-15.84-13l9.29-.46-11.54-3.48-4.22-7.73 9-.92-12.05-2.71a169.31 169.31 0 00-10.83-17.82z" fill="#fff" opacity=".2"/><path d="M408.27 325c20.71 10.59 25.19 26.17 23 43.66-.78-14.93-1.45-30.04-23-43.66z" fill="#fff"/><path d="M471.08 329.59c-33.57.55-40.16 20.86-37.78 37.52.82 3.47 5.58 6.67 15.73-10l-8.32-1.45 10.79-1.84 4.67-6.5-8-1.83 11.16-1.09a155.27 155.27 0 0111.75-14.81z" fill="#ba68c8"/><path d="M460.88 332c-19.85 7.23-25.63 20.77-25.61 36.78 2.37-13.33 4.66-26.87 25.61-36.78z" fill="#fff"/><path d="M471.08 329.59c-33.57.55-40.16 20.86-37.78 37.52.82 3.47 5.58 6.67 15.73-10l-8.32-1.45 10.79-1.84 4.67-6.5-8-1.83 11.16-1.09a155.27 155.27 0 0111.75-14.81z" fill="#fff" opacity=".2"/></g><g><path d="M301.83 215.49c-.11.13-.23.27-.32.4.09-.13.21-.27.32-.4zM317 215.45a6.35 6.35 0 00-1.52-1.2 6.35 6.35 0 011.52 1.2zM303.39 214.25c-.2.12-.4.25-.58.38.19-.13.38-.26.58-.38zM301.49 215.92a2.73 2.73 0 00-.26.43 2.73 2.73 0 01.26-.43zM302.26 215.07a4.83 4.83 0 00-.4.38 4.83 4.83 0 01.4-.38zM317.94 217.28a3.53 3.53 0 00-.85-1.72 3.53 3.53 0 01.85 1.72zM302.75 214.67zM318 217.76a3.44 3.44 0 000-.46 3.44 3.44 0 010 .46zM302.81 214.63h-.06zM317.09 215.56l-.08-.11zM317.94 217.3zM314.81 218.07a11.82 11.82 0 00-10.74 0 5.16 5.16 0 00-1.64 1.41c-1.17-1.6-.62-3.53 1.64-4.83a11.82 11.82 0 0110.74 0c2.23 1.29 2.76 3.21 1.6 4.8a5 5 0 00-1.6-1.38z" fill="#455a64"/><path d="M314.77 220.87a11.88 11.88 0 01-10.74 0 5.3 5.3 0 01-1.6-1.39 5.16 5.16 0 011.64-1.41 11.82 11.82 0 0110.74 0 5 5 0 011.6 1.38 5.07 5.07 0 01-1.64 1.42z" fill="#ba68c8"/><path d="M314.77 220.87a11.88 11.88 0 01-10.74 0 5.3 5.3 0 01-1.6-1.39 5.16 5.16 0 011.64-1.41 11.82 11.82 0 0110.74 0 5 5 0 011.6 1.38 5.07 5.07 0 01-1.64 1.42z" opacity=".3"/><path d="M302.29 215zM301.23 216.35zM300.87 217.76c0 1.27.82 2.54 2.48 3.5a13.37 13.37 0 0012.1 0c1.68-1 2.52-2.23 2.52-3.5v16.08c0 1.27-.84 2.53-2.52 3.5a13.37 13.37 0 01-12.1 0c-1.66-1-2.49-2.23-2.48-3.5v-16.08z" fill="#455a64"/><path d="M300.87 217.76c0 1.27.82 2.54 2.48 3.5a13.37 13.37 0 0012.1 0c1.68-1 2.52-2.23 2.52-3.5v16.08c0 1.27-.84 2.53-2.52 3.5a13.37 13.37 0 01-12.1 0c-1.66-1-2.49-2.23-2.48-3.5v-16.08z" fill="#fff" opacity=".1"/><path d="M301.51 215.89zM301.86 215.45zM318 217.76a3.44 3.44 0 000-.46 3.53 3.53 0 00-.85-1.72l-.08-.11a6.35 6.35 0 00-1.52-1.2 13.37 13.37 0 00-12.1 0c-.2.12-.4.25-.58.38h-.06c-.16.12-.32.24-.46.36a4.83 4.83 0 00-.4.38c-.11.13-.23.27-.32.4a2.73 2.73 0 00-.26.43 3 3 0 00-.36 1.4c0 1.27.82 2.54 2.48 3.5a13.37 13.37 0 0012.1 0c1.54-.82 2.41-2.12 2.41-3.36zm-3.2 3.11a11.88 11.88 0 01-10.74 0c-2.95-1.72-2.93-4.51 0-6.22a11.82 11.82 0 0110.74 0c2.96 1.71 2.94 4.5-.03 6.22z" fill="#455a64"/><path d="M318 217.76a3.44 3.44 0 000-.46 3.53 3.53 0 00-.85-1.72l-.08-.11a6.35 6.35 0 00-1.52-1.2 13.37 13.37 0 00-12.1 0c-.2.12-.4.25-.58.38h-.06c-.16.12-.32.24-.46.36a4.83 4.83 0 00-.4.38c-.11.13-.23.27-.32.4a2.73 2.73 0 00-.26.43 3 3 0 00-.36 1.4c0 1.27.82 2.54 2.48 3.5a13.37 13.37 0 0012.1 0c1.54-.82 2.41-2.12 2.41-3.36zm-3.2 3.11a11.88 11.88 0 01-10.74 0c-2.95-1.72-2.93-4.51 0-6.22a11.82 11.82 0 0110.74 0c2.96 1.71 2.94 4.5-.03 6.22z" fill="#fff" opacity=".3"/><path d="M314.48 235.22a6.46 6.46 0 00-.49.6 6.46 6.46 0 01.49-.6zM337 235.17a9.14 9.14 0 00-2.26-1.78 9.14 9.14 0 012.26 1.78zM316.79 233.39a9.28 9.28 0 00-.87.56 9.28 9.28 0 01.87-.56zM314 235.87a5 5 0 00-.38.63 5 5 0 01.38-.63zM315.11 234.59a8.11 8.11 0 00-.59.58 8.11 8.11 0 01.59-.58zM338.39 237.88a5.23 5.23 0 00-1.26-2.55 5.23 5.23 0 011.26 2.55zM315.83 234c-.23.17-.46.35-.67.53.21-.17.44-.35.67-.53zM338.44 238.59a5.19 5.19 0 00-.05-.68 5.19 5.19 0 01.05.68zM315.92 234l-.09.06zM337.13 235.33l-.12-.16zM338.39 237.91zM333.74 239.05c-4.38-2.55-11.53-2.54-15.94 0a7.69 7.69 0 00-2.44 2.1c-1.73-2.38-.92-5.24 2.44-7.18 4.41-2.54 11.56-2.55 15.94 0 3.32 1.93 4.11 4.77 2.38 7.14a7.56 7.56 0 00-2.38-2.06z" fill="#455a64"/><path d="M333.69 243.21c-4.41 2.54-11.57 2.55-15.95 0a7.67 7.67 0 01-2.38-2.06 7.69 7.69 0 012.44-2.1c4.41-2.54 11.56-2.55 15.94 0a7.56 7.56 0 012.38 2.06 7.76 7.76 0 01-2.43 2.1z" fill="#ba68c8"/><path d="M333.69 243.21c-4.41 2.54-11.57 2.55-15.95 0a7.67 7.67 0 01-2.38-2.06 7.69 7.69 0 012.44-2.1c4.41-2.54 11.56-2.55 15.94 0a7.56 7.56 0 012.38 2.06 7.76 7.76 0 01-2.43 2.1z" fill="#fff" opacity=".3"/><path d="M315.16 234.54l-.05.05zM313.58 236.5zM313.05 238.59c0 1.89 1.21 3.77 3.68 5.2 4.94 2.87 13 2.87 18 0 2.48-1.43 3.73-3.32 3.74-5.2v23.88c0 1.88-1.26 3.76-3.74 5.2-5 2.87-13 2.87-18 0-2.47-1.44-3.69-3.32-3.68-5.2v-23.88z" fill="#455a64"/><path d="M313.05 238.59c0 1.89 1.21 3.77 3.68 5.2 4.94 2.87 13 2.87 18 0 2.48-1.43 3.73-3.32 3.74-5.2v23.88c0 1.88-1.26 3.76-3.74 5.2-5 2.87-13 2.87-18 0-2.47-1.44-3.69-3.32-3.68-5.2v-23.88z" fill="#fff" opacity=".1"/><path d="M314 235.82v.05zM314.52 235.17v.05zM338.44 238.59a5.19 5.19 0 00-.05-.68 5.23 5.23 0 00-1.26-2.55l-.12-.16a9.14 9.14 0 00-2.26-1.78c-4.93-2.87-13-2.87-18 0a9.28 9.28 0 00-.87.56l-.09.06c-.23.17-.46.35-.67.53l-.05.05a8.11 8.11 0 00-.59.58v.05a6.46 6.46 0 00-.49.6v.05a5 5 0 00-.38.63 4.64 4.64 0 00-.52 2.08c0 1.89 1.21 3.77 3.68 5.2 4.94 2.87 13 2.87 18 0 2.41-1.45 3.66-3.34 3.67-5.22zm-4.75 4.62c-4.41 2.54-11.57 2.55-15.95 0s-4.35-6.69.06-9.24 11.56-2.55 15.94 0 4.36 6.69-.05 9.24z" fill="#455a64"/><path d="M338.44 238.59a5.19 5.19 0 00-.05-.68 5.23 5.23 0 00-1.26-2.55l-.12-.16a9.14 9.14 0 00-2.26-1.78c-4.93-2.87-13-2.87-18 0a9.28 9.28 0 00-.87.56l-.09.06c-.23.17-.46.35-.67.53l-.05.05a8.11 8.11 0 00-.59.58v.05a6.46 6.46 0 00-.49.6v.05a5 5 0 00-.38.63 4.64 4.64 0 00-.52 2.08c0 1.89 1.21 3.77 3.68 5.2 4.94 2.87 13 2.87 18 0 2.41-1.45 3.66-3.34 3.67-5.22zm-4.75 4.62c-4.41 2.54-11.57 2.55-15.95 0s-4.35-6.69.06-9.24 11.56-2.55 15.94 0 4.36 6.69-.05 9.24z" fill="#fff" opacity=".3"/><path d="M289.92 238a2.51 2.51 0 00-.25.32 2.51 2.51 0 01.25-.32zM301.74 238a4.81 4.81 0 00-1.18-.93 4.81 4.81 0 011.18.93zM291.14 237.07a4 4 0 00-.46.29 4 4 0 01.46-.29zM289.65 238.37c-.07.11-.14.22-.2.33.06-.11.13-.22.2-.33zM290.25 237.7l-.31.3zM302.47 239.43a2.81 2.81 0 00-.66-1.34 2.81 2.81 0 01.66 1.34zM290.63 237.4l-.35.27zM302.5 239.8a2.19 2.19 0 000-.36 2.19 2.19 0 010 .36zM290.68 237.36h-.05zM301.81 238.09l-.07-.09zM302.47 239.44zM300 240a9.2 9.2 0 00-8.36 0 4.05 4.05 0 00-1.28 1.1c-.91-1.25-.49-2.75 1.28-3.77a9.26 9.26 0 018.36 0c1.74 1 2.15 2.51 1.25 3.75A4.1 4.1 0 00300 240z" fill="#455a64"/><path d="M300 242.22a9.2 9.2 0 01-8.36 0 4 4 0 01-1.25-1.08 4.05 4.05 0 011.28-1.1 9.2 9.2 0 018.36 0 4.1 4.1 0 011.25 1.08 3.93 3.93 0 01-1.28 1.1z" fill="#ba68c8"/><path d="M300 242.22a9.2 9.2 0 01-8.36 0 4 4 0 01-1.25-1.08 4.05 4.05 0 011.28-1.1 9.2 9.2 0 018.36 0 4.1 4.1 0 011.25 1.08 3.93 3.93 0 01-1.28 1.1z" fill="#fff" opacity=".3"/><path d="M290.28 237.67zM289.45 238.7zM289.17 239.8a3.31 3.31 0 001.93 2.73 10.44 10.44 0 009.43 0 3.34 3.34 0 002-2.73v12.53a3.37 3.37 0 01-2 2.73 10.44 10.44 0 01-9.43 0 3.33 3.33 0 01-1.93-2.73V239.8z" fill="#455a64"/><path d="M289.17 239.8a3.31 3.31 0 001.93 2.73 10.44 10.44 0 009.43 0 3.34 3.34 0 002-2.73v12.53a3.37 3.37 0 01-2 2.73 10.44 10.44 0 01-9.43 0 3.33 3.33 0 01-1.93-2.73V239.8z" fill="#fff" opacity=".1"/><path d="M289.67 238.35zM289.94 238zM302.5 239.8a2.19 2.19 0 000-.36 2.81 2.81 0 00-.66-1.34l-.07-.09a4.81 4.81 0 00-1.18-.93 10.36 10.36 0 00-9.42 0 4 4 0 00-.46.29h-.05l-.35.27-.31.3a2.51 2.51 0 00-.25.32c-.07.11-.14.22-.2.33a2.39 2.39 0 00-.28 1.09 3.31 3.31 0 001.93 2.73 10.44 10.44 0 009.43 0 3.34 3.34 0 001.87-2.61zm-2.5 2.42a9.2 9.2 0 01-8.36 0c-2.3-1.33-2.29-3.51 0-4.85a9.26 9.26 0 018.36 0c2.33 1.34 2.32 3.52 0 4.85z" fill="#455a64"/><path d="M302.5 239.8a2.19 2.19 0 000-.36 2.81 2.81 0 00-.66-1.34l-.07-.09a4.81 4.81 0 00-1.18-.93 10.36 10.36 0 00-9.42 0 4 4 0 00-.46.29h-.05l-.35.27-.31.3a2.51 2.51 0 00-.25.32c-.07.11-.14.22-.2.33a2.39 2.39 0 00-.28 1.09 3.31 3.31 0 001.93 2.73 10.44 10.44 0 009.43 0 3.34 3.34 0 001.87-2.61zm-2.5 2.42a9.2 9.2 0 01-8.36 0c-2.3-1.33-2.29-3.51 0-4.85a9.26 9.26 0 018.36 0c2.33 1.34 2.32 3.52 0 4.85z" fill="#fff" opacity=".3"/><path d="M30.76 356.6a5.31 5.31 0 00-.38.48 5.31 5.31 0 01.38-.48zM48.4 356.56a7.31 7.31 0 00-1.76-1.39 7.31 7.31 0 011.76 1.39zM32.57 355.17a6.61 6.61 0 00-.68.44 6.61 6.61 0 01.68-.44zM30.36 357.11a4.3 4.3 0 00-.3.49 4.3 4.3 0 01.3-.49zM31.25 356.11c-.16.15-.32.3-.46.45.14-.15.3-.3.46-.45zM49.48 358.69a4.08 4.08 0 00-1-2 4.08 4.08 0 011 2zM31.82 355.66zM49.53 359.24a4.91 4.91 0 000-.53 4.91 4.91 0 010 .53zM31.89 355.61l-.07.05zM48.5 356.69a1.13 1.13 0 00-.1-.13 1.13 1.13 0 01.1.13zM49.49 358.71zM45.85 359.6a13.81 13.81 0 00-12.49 0 6.2 6.2 0 00-1.91 1.65c-1.35-1.87-.72-4.11 1.91-5.62a13.75 13.75 0 0112.49 0c2.59 1.51 3.21 3.73 1.86 5.59a5.9 5.9 0 00-1.86-1.62z" fill="#455a64"/><path d="M45.81 362.86a13.81 13.81 0 01-12.49 0 6.18 6.18 0 01-1.87-1.61 6.2 6.2 0 011.91-1.65 13.81 13.81 0 0112.49 0 5.9 5.9 0 011.86 1.62 6.14 6.14 0 01-1.9 1.64z" fill="#ba68c8"/><path d="M45.81 362.86a13.81 13.81 0 01-12.49 0 6.18 6.18 0 01-1.87-1.61 6.2 6.2 0 011.91-1.65 13.81 13.81 0 0112.49 0 5.9 5.9 0 011.86 1.62 6.14 6.14 0 01-1.9 1.64z" opacity=".3"/><path d="M31.3 356.07h-.05zM30.06 357.6zM29.64 359.25c0 1.47.95 2.95 2.89 4.07a15.54 15.54 0 0014.07 0c1.94-1.13 2.92-2.6 2.93-4.08v18.7c0 1.48-1 2.95-2.93 4.07a15.51 15.51 0 01-14.07 0c-1.94-1.12-2.9-2.59-2.89-4.07v-18.7z" fill="#455a64"/><path d="M29.64 359.25c0 1.47.95 2.95 2.89 4.07a15.54 15.54 0 0014.07 0c1.94-1.13 2.92-2.6 2.93-4.08v18.7c0 1.48-1 2.95-2.93 4.07a15.51 15.51 0 01-14.07 0c-1.94-1.12-2.9-2.59-2.89-4.07v-18.7z" fill="#fff" opacity=".1"/><path d="M30.38 357.08zM30.79 356.56zM49.53 359.24a4.91 4.91 0 000-.53 4.08 4.08 0 00-1-2 1.13 1.13 0 00-.1-.13 7.31 7.31 0 00-1.76-1.39 15.51 15.51 0 00-14.07 0 6.61 6.61 0 00-.68.44l-.07.05c-.18.13-.36.27-.52.41h-.05c-.16.15-.32.3-.46.45a5.31 5.31 0 00-.38.48 4.3 4.3 0 00-.3.49 3.58 3.58 0 00-.41 1.63c0 1.47.95 2.95 2.89 4.07a15.54 15.54 0 0014.07 0c1.85-1.02 2.83-2.49 2.84-3.97zm-3.72 3.62a13.81 13.81 0 01-12.49 0c-3.43-2-3.41-5.24 0-7.23a13.75 13.75 0 0112.49 0c3.47 1.99 3.45 5.24 0 7.23z" fill="#455a64"/><path d="M49.53 359.24a4.91 4.91 0 000-.53 4.08 4.08 0 00-1-2 1.13 1.13 0 00-.1-.13 7.31 7.31 0 00-1.76-1.39 15.51 15.51 0 00-14.07 0 6.61 6.61 0 00-.68.44l-.07.05c-.18.13-.36.27-.52.41h-.05c-.16.15-.32.3-.46.45a5.31 5.31 0 00-.38.48 4.3 4.3 0 00-.3.49 3.58 3.58 0 00-.41 1.63c0 1.47.95 2.95 2.89 4.07a15.54 15.54 0 0014.07 0c1.85-1.02 2.83-2.49 2.84-3.97zm-3.72 3.62a13.81 13.81 0 01-12.49 0c-3.43-2-3.41-5.24 0-7.23a13.75 13.75 0 0112.49 0c3.47 1.99 3.45 5.24 0 7.23z" fill="#fff" opacity=".3"/><path d="M72.53 374c-.16.18-.32.37-.45.55.13-.21.29-.4.45-.55zM93.22 373.92a8.4 8.4 0 00-2.07-1.63 8.4 8.4 0 012.07 1.63zM74.66 372.29a8 8 0 00-.81.51 8 8 0 01.81-.51zM72.06 374.57a5.84 5.84 0 00-.35.57 5.84 5.84 0 01.35-.57zM73.11 373.4a5.36 5.36 0 00-.54.52 5.36 5.36 0 01.54-.52zM94.48 376.42a4.84 4.84 0 00-1.15-2.35 4.84 4.84 0 011.15 2.35zM73.77 372.86c-.21.16-.42.32-.61.49.19-.17.4-.35.61-.49zM94.53 377.07a4.44 4.44 0 000-.63 4.44 4.44 0 010 .63zM73.85 372.8l-.08.06zM93.33 374.07l-.11-.15zM94.49 376.44zM90.22 377.49a16.14 16.14 0 00-14.64 0 7 7 0 00-2.24 1.93c-1.59-2.19-.84-4.82 2.24-6.6a16.2 16.2 0 0114.64 0c3 1.77 3.77 4.38 2.19 6.56a7 7 0 00-2.19-1.89z" fill="#455a64"/><path d="M90.17 381.3a16.14 16.14 0 01-14.64 0 7 7 0 01-2.19-1.89 7 7 0 012.24-1.93 16.14 16.14 0 0114.64 0 7 7 0 012.19 1.89 7 7 0 01-2.24 1.93z" fill="#ba68c8"/><path d="M90.17 381.3a16.14 16.14 0 01-14.64 0 7 7 0 01-2.19-1.89 7 7 0 012.24-1.93 16.14 16.14 0 0114.64 0 7 7 0 012.19 1.89 7 7 0 01-2.24 1.93z" fill="#fff" opacity=".3"/><path d="M73.16 373.35zM71.71 375.14zM71.22 377.07c0 1.73 1.11 3.46 3.38 4.77 4.53 2.64 11.93 2.64 16.5 0 2.28-1.31 3.42-3 3.43-4.77V399c0 1.73-1.15 3.46-3.43 4.78-4.57 2.63-12 2.63-16.5 0-2.27-1.32-3.39-3-3.38-4.78v-21.93z" fill="#455a64"/><path d="M71.22 377.07c0 1.73 1.11 3.46 3.38 4.77 4.53 2.64 11.93 2.64 16.5 0 2.28-1.31 3.42-3 3.43-4.77V399c0 1.73-1.15 3.46-3.43 4.78-4.57 2.63-12 2.63-16.5 0-2.27-1.32-3.39-3-3.38-4.78v-21.93z" fill="#fff" opacity=".1"/><path d="M72.08 374.52v.05zM72.57 373.92v.05zM94.53 377.07a4.44 4.44 0 000-.63 4.84 4.84 0 00-1.15-2.35l-.11-.15a8.4 8.4 0 00-2.07-1.63c-4.53-2.64-11.93-2.64-16.49 0a8 8 0 00-.81.51l-.08.06c-.21.16-.42.32-.61.49a5.36 5.36 0 00-.54.52v.05c-.16.18-.32.37-.45.55v.05a5.84 5.84 0 00-.35.57 4.13 4.13 0 00-.48 1.91c0 1.73 1.11 3.46 3.38 4.77 4.53 2.64 11.93 2.64 16.5 0 2.11-1.26 3.25-2.99 3.26-4.72zm-4.36 4.23a16.14 16.14 0 01-14.64 0c-4-2.34-4-6.15 0-8.49a16.2 16.2 0 0114.64 0c4.07 2.35 4.05 6.19 0 8.49z" fill="#455a64"/><path d="M94.53 377.07a4.44 4.44 0 000-.63 4.84 4.84 0 00-1.15-2.35l-.11-.15a8.4 8.4 0 00-2.07-1.63c-4.53-2.64-11.93-2.64-16.49 0a8 8 0 00-.81.51l-.08.06c-.21.16-.42.32-.61.49a5.36 5.36 0 00-.54.52v.05c-.16.18-.32.37-.45.55v.05a5.84 5.84 0 00-.35.57 4.13 4.13 0 00-.48 1.91c0 1.73 1.11 3.46 3.38 4.77 4.53 2.64 11.93 2.64 16.5 0 2.11-1.26 3.25-2.99 3.26-4.72zm-4.36 4.23a16.14 16.14 0 01-14.64 0c-4-2.34-4-6.15 0-8.49a16.2 16.2 0 0114.64 0c4.07 2.35 4.05 6.19 0 8.49z" fill="#fff" opacity=".3"/><path d="M59.28 388.53l-.31.39zM73.68 388.5a6.14 6.14 0 00-1.44-1.14 6.14 6.14 0 011.44 1.14zM60.76 387.36l-.55.36zM59 389a2.42 2.42 0 00-.25.4 2.42 2.42 0 01.25-.4zM59.69 388.13a3.34 3.34 0 00-.38.37 3.34 3.34 0 01.38-.37zM74.56 390.24a3.36 3.36 0 00-.8-1.64 3.36 3.36 0 01.8 1.64zM60.15 387.76a5 5 0 00-.43.34 5 5 0 01.43-.34zM74.6 390.69a2.18 2.18 0 000-.44 2.18 2.18 0 010 .44zM60.21 387.72h-.06zM73.76 388.6l-.08-.1zM74.56 390.25zM71.6 391a11.23 11.23 0 00-10.19 0 4.89 4.89 0 00-1.56 1.34c-1.11-1.52-.59-3.35 1.56-4.59a11.29 11.29 0 0110.19 0c2.11 1.24 2.62 3 1.52 4.57A4.89 4.89 0 0071.6 391z" fill="#455a64"/><path d="M71.56 393.64a11.26 11.26 0 01-10.19 0 4.89 4.89 0 01-1.52-1.32 4.89 4.89 0 011.56-1.32 11.23 11.23 0 0110.19 0 4.89 4.89 0 011.52 1.32 5.14 5.14 0 01-1.56 1.32z" fill="#ba68c8"/><path d="M71.56 393.64a11.26 11.26 0 01-10.19 0 4.89 4.89 0 01-1.52-1.32 4.89 4.89 0 011.56-1.32 11.23 11.23 0 0110.19 0 4.89 4.89 0 011.52 1.32 5.14 5.14 0 01-1.56 1.32z" opacity=".3"/><path d="M59.72 388.1zM58.71 389.35zM58.37 390.69a4 4 0 002.35 3.31 12.68 12.68 0 0011.49 0 4.08 4.08 0 002.39-3.32v15.25a4.1 4.1 0 01-2.39 3.33 12.71 12.71 0 01-11.49 0c-1.57-.92-2.36-2.12-2.35-3.32v-15.25z" fill="#455a64"/><path d="M58.37 390.69a4 4 0 002.35 3.31 12.68 12.68 0 0011.49 0 4.08 4.08 0 002.39-3.32v15.25a4.1 4.1 0 01-2.39 3.33 12.71 12.71 0 01-11.49 0c-1.57-.92-2.36-2.12-2.35-3.32v-15.25z" fill="#fff" opacity=".1"/><path d="M59 388.92zM59.31 388.5zM74.6 390.69a2.18 2.18 0 000-.44 3.36 3.36 0 00-.8-1.64l-.08-.1a6.14 6.14 0 00-1.44-1.14 12.69 12.69 0 00-11.48 0l-.55.36h-.06a5 5 0 00-.43.34 3.34 3.34 0 00-.38.37l-.31.39a2.42 2.42 0 00-.25.4 2.92 2.92 0 00-.34 1.33 4 4 0 002.24 3.44 12.68 12.68 0 0011.49 0 4.08 4.08 0 002.39-3.31zm-3 2.95a11.26 11.26 0 01-10.19 0c-2.8-1.63-2.78-4.28 0-5.91a11.29 11.29 0 0110.19 0c2.8 1.63 2.78 4.27-.04 5.91z" fill="#455a64"/><path d="M74.6 390.69a2.18 2.18 0 000-.44 3.36 3.36 0 00-.8-1.64l-.08-.1a6.14 6.14 0 00-1.44-1.14 12.69 12.69 0 00-11.48 0l-.55.36h-.06a5 5 0 00-.43.34 3.34 3.34 0 00-.38.37l-.31.39a2.42 2.42 0 00-.25.4 2.92 2.92 0 00-.34 1.33 4 4 0 002.24 3.44 12.68 12.68 0 0011.49 0 4.08 4.08 0 002.39-3.31zm-3 2.95a11.26 11.26 0 01-10.19 0c-2.8-1.63-2.78-4.28 0-5.91a11.29 11.29 0 0110.19 0c2.8 1.63 2.78 4.27-.04 5.91z" fill="#fff" opacity=".3"/><path d="M382.68 396.67a3.55 3.55 0 00-.35.44 3.55 3.55 0 01.35-.44zM399.16 396.63a6.6 6.6 0 00-1.65-1.3 6.6 6.6 0 011.65 1.3zM384.38 395.33zM382.31 397.14a3.14 3.14 0 00-.28.46 3.14 3.14 0 01.28-.46zM383.14 396.21a5.7 5.7 0 00-.43.42 5.7 5.7 0 01.43-.42zM400.17 398.61a4 4 0 00-.92-1.87 4 4 0 01.92 1.87zM383.68 395.78c-.18.13-.34.26-.5.39.16-.17.32-.26.5-.39zM400.21 399.13a4.21 4.21 0 000-.5 4.21 4.21 0 010 .5zM383.74 395.73h-.06zM399.25 396.74l-.09-.11zM400.17 398.63zM396.77 399.47a12.85 12.85 0 00-11.66 0 5.69 5.69 0 00-1.78 1.53c-1.26-1.74-.67-3.83 1.78-5.25a12.88 12.88 0 0111.66 0c2.43 1.41 3 3.49 1.74 5.22a5.46 5.46 0 00-1.74-1.5z" fill="#455a64"/><path d="M396.73 402.51a12.88 12.88 0 01-11.66 0 5.71 5.71 0 01-1.74-1.51 5.69 5.69 0 011.78-1.53 12.85 12.85 0 0111.66 0 5.46 5.46 0 011.74 1.5 5.62 5.62 0 01-1.78 1.54z" fill="#ba68c8"/><path d="M396.73 402.51a12.88 12.88 0 01-11.66 0 5.71 5.71 0 01-1.74-1.51 5.69 5.69 0 011.78-1.53 12.85 12.85 0 0111.66 0 5.46 5.46 0 011.74 1.5 5.62 5.62 0 01-1.78 1.54z" fill="#fff" opacity=".3"/><path d="M383.18 396.17s-.01.01 0 0zM382 397.6zM381.64 399.13c0 1.38.89 2.76 2.69 3.8a14.49 14.49 0 0013.14 0c1.82-1 2.73-2.42 2.74-3.8v17.46c0 1.38-.92 2.75-2.74 3.8a14.49 14.49 0 01-13.14 0c-1.8-1.05-2.7-2.42-2.69-3.8v-17.46z" fill="#455a64"/><path d="M381.64 399.13c0 1.38.89 2.76 2.69 3.8a14.49 14.49 0 0013.14 0c1.82-1 2.73-2.42 2.74-3.8v17.46c0 1.38-.92 2.75-2.74 3.8a14.49 14.49 0 01-13.14 0c-1.8-1.05-2.7-2.42-2.69-3.8v-17.46z" fill="#fff" opacity=".1"/><path d="M382.33 397.11zM382.71 396.63zM400.21 399.13a4.21 4.21 0 000-.5 4 4 0 00-.92-1.87l-.09-.11a6.6 6.6 0 00-1.65-1.3 14.47 14.47 0 00-13.13 0c-.23.13-.44.26-.64.4h-.06c-.18.13-.34.26-.5.39a5.7 5.7 0 00-.43.42 3.55 3.55 0 00-.35.44 3.14 3.14 0 00-.28.46 3.38 3.38 0 00-.38 1.52c0 1.38.89 2.76 2.69 3.8a14.49 14.49 0 0013.14 0c1.68-.89 2.59-2.27 2.6-3.65zm-3.48 3.38a12.88 12.88 0 01-11.66 0c-3.2-1.87-3.18-4.9 0-6.76a12.88 12.88 0 0111.66 0c3.27 1.86 3.27 4.9 0 6.76z" fill="#455a64"/><path d="M400.21 399.13a4.21 4.21 0 000-.5 4 4 0 00-.92-1.87l-.09-.11a6.6 6.6 0 00-1.65-1.3 14.47 14.47 0 00-13.13 0c-.23.13-.44.26-.64.4h-.06c-.18.13-.34.26-.5.39a5.7 5.7 0 00-.43.42 3.55 3.55 0 00-.35.44 3.14 3.14 0 00-.28.46 3.38 3.38 0 00-.38 1.52c0 1.38.89 2.76 2.69 3.8a14.49 14.49 0 0013.14 0c1.68-.89 2.59-2.27 2.6-3.65zm-3.48 3.38a12.88 12.88 0 01-11.66 0c-3.2-1.87-3.18-4.9 0-6.76a12.88 12.88 0 0111.66 0c3.27 1.86 3.27 4.9 0 6.76z" fill="#fff" opacity=".3"/><path d="M366.58 413a3.31 3.31 0 00-.25.3 3.31 3.31 0 01.25-.3zM378 413a4.7 4.7 0 00-1.14-.91 4.7 4.7 0 011.14.91zM367.76 412.06a5 5 0 00-.45.29 5 5 0 01.45-.29zM366.32 413.32a2.9 2.9 0 00-.2.33 2.9 2.9 0 01.2-.33zM366.9 412.68a2.76 2.76 0 00-.3.29 2.76 2.76 0 01.3-.29zM378.74 414.35a2.63 2.63 0 00-.63-1.3 2.63 2.63 0 01.63 1.3zM367.27 412.38c-.12.09-.24.18-.34.27.07-.09.22-.18.34-.27zM378.77 414.71v-.35c-.01.12 0 .23 0 .35zM367.31 412.35zM378.11 413.05s0-.06-.07-.08.04.03.07.08zM378.75 414.36zM376.38 414.94a9 9 0 00-8.11 0A3.92 3.92 0 00367 416c-.88-1.21-.47-2.66 1.24-3.65a9 9 0 018.11 0c1.69 1 2.09 2.43 1.21 3.63a3.75 3.75 0 00-1.18-1.04z" fill="#455a64"/><path d="M376.36 417.06a8.94 8.94 0 01-8.12 0A3.86 3.86 0 01367 416a3.92 3.92 0 011.24-1.07 9 9 0 018.11 0 3.75 3.75 0 011.21 1.05 4 4 0 01-1.2 1.08z" fill="#ba68c8"/><path d="M376.36 417.06a8.94 8.94 0 01-8.12 0A3.86 3.86 0 01367 416a3.92 3.92 0 011.24-1.07 9 9 0 018.11 0 3.75 3.75 0 011.21 1.05 4 4 0 01-1.2 1.08z" opacity=".3"/><path d="M366.93 412.65zM365.85 414.71a3.22 3.22 0 001.87 2.65 10.1 10.1 0 009.15 0 3.24 3.24 0 001.9-2.65v12.15a3.24 3.24 0 01-1.9 2.65 10.1 10.1 0 01-9.15 0 3.22 3.22 0 01-1.87-2.65v-12.15z" fill="#455a64"/><path d="M365.85 414.71a3.22 3.22 0 001.87 2.65 10.1 10.1 0 009.15 0 3.24 3.24 0 001.9-2.65v12.15a3.24 3.24 0 01-1.9 2.65 10.1 10.1 0 01-9.15 0 3.22 3.22 0 01-1.87-2.65v-12.15z" fill="#fff" opacity=".1"/><path d="M366.33 413.3zM366.6 413zM378.77 414.71v-.35a2.63 2.63 0 00-.63-1.3s0-.06-.07-.08a4.7 4.7 0 00-1.14-.91 10.08 10.08 0 00-9.14 0 5 5 0 00-.45.29c-.12.09-.24.18-.34.27a2.76 2.76 0 00-.3.29 3.31 3.31 0 00-.25.3 2.9 2.9 0 00-.2.33 2.32 2.32 0 00-.27 1.06 3.22 3.22 0 001.87 2.65 10.1 10.1 0 009.15 0 3.24 3.24 0 001.77-2.55zm-2.41 2.35a8.94 8.94 0 01-8.12 0c-2.23-1.3-2.22-3.4 0-4.7a9 9 0 018.11 0c2.26 1.3 2.25 3.4.01 4.7z" fill="#455a64"/><path d="M378.77 414.71v-.35a2.63 2.63 0 00-.63-1.3s0-.06-.07-.08a4.7 4.7 0 00-1.14-.91 10.08 10.08 0 00-9.14 0 5 5 0 00-.45.29c-.12.09-.24.18-.34.27a2.76 2.76 0 00-.3.29 3.31 3.31 0 00-.25.3 2.9 2.9 0 00-.2.33 2.32 2.32 0 00-.27 1.06 3.22 3.22 0 001.87 2.65 10.1 10.1 0 009.15 0 3.24 3.24 0 001.77-2.55zm-2.41 2.35a8.94 8.94 0 01-8.12 0c-2.23-1.3-2.22-3.4 0-4.7a9 9 0 018.11 0c2.26 1.3 2.25 3.4.01 4.7z" fill="#fff" opacity=".3"/></g><g><path fill="#ba68c8" d="M238.91 27.96l-11-2.99L50.07 127.65l55.83 270.13 10.99 2.99 177.85-102.68-55.83-270.13z"/><path fill="#fff" opacity=".5" d="M238.91 27.96l-11-2.99L50.07 127.65l55.83 270.13 10.99 2.99 177.85-102.68-55.83-270.13z"/><path opacity=".1" d="M50.07 127.65l55.83 270.13 10.99 2.99-55.83-270.13-10.99-2.99z"/><path fill="#fff" opacity=".3" d="M238.91 27.96l-11-2.99L50.07 127.65l10.99 2.99L238.91 27.96z"/><path d="M173 221.21a2.89 2.89 0 001.51.34 2.89 2.89 0 01-1.51-.34zM184.14 210.72c.44 2.11 1.83 3.33 3.44 3.26-1.61.07-3-1.15-3.44-3.26l-2.92-14.12a2.8 2.8 0 00-.79-1.52 2.8 2.8 0 01.79 1.52zM193.89 235.73a42.68 42.68 0 01.53-8.47 42.68 42.68 0 00-.53 8.47zM166.62 206.42a2.08 2.08 0 01.75.13 2.08 2.08 0 00-.75-.13zM182.12 194.07a4.72 4.72 0 01.54 1.27 4.72 4.72 0 00-.54-1.27zM197.9 210.47a24.69 24.69 0 00.31-4.9 24.69 24.69 0 01-.31 4.9zM190 212.9a4.79 4.79 0 01-.79.57 4.84 4.84 0 01-.47.21 4.84 4.84 0 00.47-.21 4.79 4.79 0 00.79-.57zM190.17 195.73a4.92 4.92 0 00.09.76l.41 2-.41-2a4.92 4.92 0 01-.09-.76zM198.2 205.47a21.44 21.44 0 00-.41-3.43l-1.45-7 1.45 7a21.44 21.44 0 01.41 3.43zM195.06 191.47a2.54 2.54 0 01.53.73 2.54 2.54 0 00-.53-.73zM168.64 204.78l.29.2zM167.36 204.33a3.18 3.18 0 011.13.36 3.18 3.18 0 00-1.13-.36zM176.65 218.31a4.82 4.82 0 00.87-1.79 4.82 4.82 0 01-.87 1.79zM177.66 193a3.42 3.42 0 01.84-.37 3.42 3.42 0 00-.84.37zM181.49 193.28a4.3 4.3 0 01.48.55 4.3 4.3 0 00-.48-.55zM180.1 192.52a3 3 0 011.38.75 3 3 0 00-1.38-.75zM178.91 192.49a2.85 2.85 0 01.41 0 2.85 2.85 0 00-.41 0zM193.9 236c.06 1.22.17 2.43.34 3.61-.17-1.14-.24-2.35-.34-3.61zM167.73 230.1l7.19 7.6a22.3 22.3 0 014.37 6.94 22.3 22.3 0 00-4.37-6.94z" fill="none"/><path d="M161.82 212.91c-.63-3 .82-6.66 3.24-8a3.83 3.83 0 011.79-.55 3.83 3.83 0 00-1.79.55c-2.42 1.39-3.87 5-3.24 8l1.82 8.84a18.58 18.58 0 002.48 6.27 18.58 18.58 0 01-2.48-6.27zM175.72 219.12a3.39 3.39 0 00.93-.81 3.39 3.39 0 01-.93.81 2.17 2.17 0 01-1 .32 2.17 2.17 0 001-.32zM171 218.29a4.14 4.14 0 001.93 2.92 4.14 4.14 0 01-1.93-2.92l-2-9.56a3.15 3.15 0 00-.9-1.73 3.15 3.15 0 01.9 1.73zM185.98 274.62l-8.32 4.8 9.47-5.47-1.15.67zM188.84 211.55a4.56 4.56 0 001.87-4.62 4.56 4.56 0 01-1.87 4.62 2.15 2.15 0 01-1 .31 2.15 2.15 0 001-.31zM177.59 214.51l-2.92-14.12a7.59 7.59 0 012.2-6.86 7.59 7.59 0 00-2.2 6.86l2.92 14.12a4.56 4.56 0 01-.07 2 4.56 4.56 0 00.07-2zM199.32 201.16a24.61 24.61 0 01.48 5.27 24.61 24.61 0 00-.48-5.27l-1.83-8.85a5 5 0 00-1.37-2.63 5 5 0 011.37 2.63zM196.15 241a34.94 34.94 0 01-.71-7.66 34.94 34.94 0 00.71 7.66zM187.51 273.73l12.9-7.44-.67.38-12.23 7.06z" fill="none"/><path d="M192 189.32a3.35 3.35 0 014.13.34 3.35 3.35 0 00-4.13-.34c-2.42 1.4-3.87 5-3.24 8.05l2 9.56-2-9.56c-.66-3.04.79-6.65 3.24-8.05z" fill="none"/><path d="M201.51 316l2.84-1.64a4.41 4.41 0 001.8-4.48l-7.72 4.46c.35 1.74 1.73 2.48 3.08 1.66z" fill="#455a64"/><path d="M161.48 123c.22 1.06 1.08 1.54 1.93 1.05a2.79 2.79 0 001.13-2.82L159.12 95c-.22-1.07-1.09-1.54-1.93-1a2.78 2.78 0 00-1.13 2.81zM137.13 148.15a1.19 1.19 0 001.53.2 2.22 2.22 0 00.7-.7 2.58 2.58 0 000-3L124.27 128a1.16 1.16 0 00-1.53-.2 2.21 2.21 0 00-.71.69 2.6 2.6 0 000 3zM102.67 181.61l20.75 2.71a1.34 1.34 0 00.82-.18 2.61 2.61 0 001.13-1.73c.23-1.16-.27-2.2-1.11-2.31l-20.75-2.69a1.27 1.27 0 00-.82.18 2.55 2.55 0 00-1.12 1.72c-.23 1.16.26 2.2 1.1 2.3zM125.16 219c-.21-1.06-1.07-1.53-1.92-1l-20.83 12a2.76 2.76 0 00-1.13 2.81c.22 1.06 1.08 1.54 1.93 1.05l20.83-12a2.75 2.75 0 001.12-2.86zM137.3 247.32a2.23 2.23 0 00-.72.69l-15.32 23.54a2.58 2.58 0 000 2.95 1.19 1.19 0 001.53.2 2.22 2.22 0 00.7-.7l15.34-23.54a2.56 2.56 0 000-2.94 1.15 1.15 0 00-1.53-.2zM216.43 130.91a2.05 2.05 0 00.71-.7l15.33-23.53a2.6 2.6 0 000-3 1.17 1.17 0 00-1.53-.19 2.14 2.14 0 00-.71.7l-15.33 23.52a2.6 2.6 0 000 3 1.17 1.17 0 001.53.2zM191.06 117.8a1.29 1.29 0 00.82-.18 2.6 2.6 0 001.12-1.73l5.73-28.73c.23-1.16-.27-2.19-1.11-2.31a1.35 1.35 0 00-.82.19 2.52 2.52 0 00-1.12 1.73L190 115.5c-.28 1.16.22 2.19 1.06 2.3zM251.05 196.61l-20.75-2.71a1.33 1.33 0 00-.81.19 2.52 2.52 0 00-1.12 1.73c-.24 1.16.26 2.19 1.1 2.3l20.75 2.7a1.26 1.26 0 00.81-.18 2.55 2.55 0 001.13-1.72c.23-1.17-.26-2.2-1.11-2.31z" fill="#fff"/><path d="M188.57 309.57c1.07 5.18 5.28 7.45 9.39 5.08l.47-.27 7.72-4.46.47-.27c4.12-2.38 6.59-8.51 5.52-13.69z" fill="#455a64"/><path d="M188.57 309.57c1.07 5.18 5.28 7.45 9.39 5.08l.47-.27 7.72-4.46.47-.27c4.12-2.38 6.59-8.51 5.52-13.69z" opacity=".15"/><path d="M228.56 159.26c.22 1.07 1.09 1.54 1.93 1.05l20.83-12a2.79 2.79 0 001.13-2.82c-.22-1.06-1.08-1.53-1.93-1l-20.82 12a2.77 2.77 0 00-1.14 2.77z" fill="#fff"/><path fill="#455a64" d="M215.78 291.01l-1.72-8.32-2.02 1.17-27.86 16.09-2.03 1.17 1.72 8.32 2.03-1.17 27.86-16.09 2.02-1.17zM185.9 308.27l.52 2.54 2.15-1.24 23.57-13.61 2.15-1.24-.53-2.54-27.86 16.09z"/><path fill="#455a64" d="M183.66 297.41l.52 2.54 27.86-16.09-.52-2.54-27.86 16.09zM181.41 286.56l.53 2.53 27.86-16.08-.53-2.54-27.86 16.09z"/><g opacity=".3"><path d="M185.9 308.27l.52 2.54 2.15-1.24 23.57-13.61 2.15-1.24-.53-2.54-27.86 16.09zM183.66 297.41l.52 2.54 27.86-16.09-.52-2.54-27.86 16.09zM181.41 286.56l.53 2.53 27.86-16.08-.53-2.54-27.86 16.09z"/></g><path fill="#455a64" d="M183.66 297.41l27.86-16.09 2.02-1.16-1.72-8.32-2.02 1.17-27.86 16.08-2.03 1.17 1.72 8.32 2.03-1.17z"/><path d="M187.51 273.73L182.39 249a26.68 26.68 0 00-6.39-13l-7.19-7.6a15.28 15.28 0 01-3.67-7.49l-1.8-8.91a5.16 5.16 0 012.12-5.24 2.56 2.56 0 011.16-.36 2.08 2.08 0 01.75.13 2.12 2.12 0 01.78.45 3.15 3.15 0 01.9 1.73l2 9.56a4.14 4.14 0 001.93 2.92 2.89 2.89 0 001.51.34 3.6 3.6 0 001.65-.5c2.24-1.29 3.57-4.62 3-7.42l-2.94-14.11a4.53 4.53 0 011.86-4.62 1.91 1.91 0 012.37.2 2.8 2.8 0 01.79 1.52l2.92 14.12c.44 2.11 1.83 3.33 3.44 3.26a3.53 3.53 0 001.19-.3 4.84 4.84 0 00.47-.21 4.79 4.79 0 00.79-.57 7.57 7.57 0 002.2-6.85l-1.56-7.59-.41-2a4.92 4.92 0 01-.09-.76 5.09 5.09 0 012.2-4.49 2.19 2.19 0 012.69.23 2.54 2.54 0 01.53.73 3.51 3.51 0 01.37 1l.38 1.83 1.45 7a21.44 21.44 0 01.41 3.43.38.38 0 010 .1 24.69 24.69 0 01-.31 4.9c-.07.41-.14.83-.23 1.24l-2.85 13.4a50.9 50.9 0 00-.4 2.15 42.68 42.68 0 00-.53 8.47v.31c.06 1.22.17 2.43.34 3.61.1.75.23 1.5.38 2.23l5.12 24.79.67-.38.86-.5-5.1-24.75a34.94 34.94 0 01-.71-7.66 40.78 40.78 0 01.9-8l2.85-13.4a28.09 28.09 0 00.61-5.51 24.61 24.61 0 00-.48-5.27l-1.83-8.85a5 5 0 00-1.37-2.63 3.35 3.35 0 00-4.13-.34c-2.42 1.4-3.87 5-3.24 8.05l2 9.56a4.56 4.56 0 01-1.87 4.62 2.15 2.15 0 01-1 .31 2 2 0 01-1.95-1.42 2.79 2.79 0 01-.18-.6l-2.92-14.13c0-.13-.06-.25-.1-.37a4.72 4.72 0 00-.54-1.27l-.15-.24a4.3 4.3 0 00-.48-.55 3 3 0 00-1.38-.75 2.63 2.63 0 00-.39-.06 2.54 2.54 0 00-.39 0 2.85 2.85 0 00-.41 0l-.41.1a3.42 3.42 0 00-.84.37 4.79 4.79 0 00-.79.57 7.59 7.59 0 00-2.2 6.86l2.92 14.12a4.56 4.56 0 01-.07 2 4.82 4.82 0 01-.87 1.79 3.39 3.39 0 01-.93.81 2.17 2.17 0 01-1 .32 2.21 2.21 0 01-2.14-2l-2-9.56a4.77 4.77 0 00-1.65-2.87l-.29-.2-.15-.09a3.18 3.18 0 00-1.13-.36 2.83 2.83 0 00-.51 0 3.83 3.83 0 00-1.79.55c-2.42 1.39-3.87 5-3.24 8l1.82 8.84a18.58 18.58 0 002.48 6.27c.29.44.58.86.9 1.26s.47.56.71.82l7.19 7.6a22.3 22.3 0 014.37 6.94 29.6 29.6 0 011.57 5.19l5.06 24.8 1.15-.67z" fill="#fff"/><path fill="#455a64" d="M201.27 265.79l-.86.5-12.9 7.44-.38.22-9.47 5.47 1.72 8.31 2.03-1.17 27.86-16.09 2.03-1.17-1.72-8.31-8.31 4.8z"/><path d="M194.62 241.88c-.15-.73-.28-1.48-.38-2.23-.17-1.18-.28-2.39-.34-3.61v-.31a42.68 42.68 0 01.53-8.47c.12-.72.25-1.44.4-2.15l2.85-13.4c.09-.41.16-.83.23-1.24a24.69 24.69 0 00.31-4.9.38.38 0 000-.1 21.44 21.44 0 00-.41-3.43l-1.45-7-.38-1.83a3.51 3.51 0 00-.37-1 2.54 2.54 0 00-.53-.73 2.19 2.19 0 00-2.69-.23 5.09 5.09 0 00-2.2 4.49 4.92 4.92 0 00.09.76l.41 2 1.56 7.59a7.57 7.57 0 01-2.2 6.85 4.79 4.79 0 01-.79.57 4.84 4.84 0 01-.47.21 3.53 3.53 0 01-1.19.3c-1.61.07-3-1.15-3.44-3.26l-2.92-14.12a2.8 2.8 0 00-.79-1.52 1.91 1.91 0 00-2.37-.2 4.53 4.53 0 00-1.86 4.62l2.91 14.13c.58 2.8-.75 6.13-3 7.42a3.6 3.6 0 01-1.65.5 2.89 2.89 0 01-1.51-.34 4.14 4.14 0 01-1.93-2.92l-2-9.56a3.15 3.15 0 00-.9-1.73 2.12 2.12 0 00-.78-.45 2.08 2.08 0 00-.75-.13 2.56 2.56 0 00-1.16.36 5.16 5.16 0 00-2.12 5.24l1.83 8.85a15.28 15.28 0 003.67 7.49L176 236a26.68 26.68 0 016.36 13l5.12 24.78 12.23-7.06z" fill="#ba68c8"/><path d="M164.68 130.15l-.71.41c-24.55 14.69-39.65 51.51-34 83 3.19 17.79 12.17 30.38 23.79 36.05 6.11 3 10.9 8.9 13.25 17l.14.52c1.81 6.22 5.62 10.68 10.53 12.31l8.31-4.8-5.12-24.79a29.6 29.6 0 00-1.57-5.19 22.3 22.3 0 00-4.37-6.94l-7.19-7.6c-.24-.26-.48-.54-.71-.82s-.61-.82-.9-1.26a18.58 18.58 0 01-2.48-6.27l-1.82-8.84c-.63-3 .82-6.66 3.24-8a3.83 3.83 0 011.79-.55 2.83 2.83 0 01.51 0 3.18 3.18 0 011.13.36l.15.09.29.2a4.77 4.77 0 011.65 2.87l2 9.56a2.21 2.21 0 002.14 2 2.17 2.17 0 001-.32 3.39 3.39 0 00.93-.81 4.82 4.82 0 00.87-1.79 4.56 4.56 0 00.07-2l-2.92-14.12a7.59 7.59 0 012.2-6.86 4.79 4.79 0 01.79-.57 3.42 3.42 0 01.84-.37l.41-.1a2.85 2.85 0 01.41 0 2.54 2.54 0 01.39 0 2.63 2.63 0 01.39.06 3 3 0 011.38.75 4.3 4.3 0 01.48.55l.15.24a4.72 4.72 0 01.54 1.27c0 .12.07.24.1.37l2.92 14.13a2.79 2.79 0 00.18.6 2 2 0 001.95 1.42 2.15 2.15 0 001-.31 4.56 4.56 0 001.87-4.62l-2-9.56c-.63-3 .82-6.65 3.24-8.05a3.35 3.35 0 014.13.34 5 5 0 011.37 2.63l1.83 8.85a24.61 24.61 0 01.48 5.27 28.09 28.09 0 01-.61 5.51l-2.85 13.4a40.78 40.78 0 00-.9 8 34.94 34.94 0 00.71 7.66l5.12 24.79 8.31-4.8a35.77 35.77 0 003.73-20.53l-.07-.57a51.17 51.17 0 013.93-26.55c7-16 9.54-34.56 6-51.53-6.57-32.32-32.78-46.5-58.42-31.69z" fill="#ba68c8"/></g><g><path d="M98.67 258.51a3.66 3.66 0 00-4.07.17 4.09 4.09 0 00-1.53 3.84 3.54 3.54 0 001.42 2.41 2.64 2.64 0 002.73.19 1.52 1.52 0 01-1.34-.67 1.35 1.35 0 010-1.4c.46-.77 1.54-.88 2.29-1.37.97-.68 1.49-2.51.5-3.17z" fill="#37474f"/><path d="M98.84 260a1 1 0 01-.82-1.88l12.8-6 1.11 2.56z" fill="#fff"/><path d="M150.25 236.57a.64.64 0 00-.83-.34l-39.63 16a1.76 1.76 0 00-1 2.34 1.76 1.76 0 002.36.89l38.75-18.05a.65.65 0 00.35-.84z" fill="#455a64"/><path d="M93.5 262.9a.5.5 0 00.56-.12c.19-.23.07-.63.29-.84a.66.66 0 01.68 0 1.05 1.05 0 00.69.1c.25-.1.36-.38.5-.6a1 1 0 01.86-.49.66.66 0 01.63.68.69.69 0 01-.27.44 3 3 0 00-1.59 1 1.35 1.35 0 000 1.4 1.52 1.52 0 001.34.67 2.64 2.64 0 01-2.73-.19 3.52 3.52 0 01-1.41-2.36 1 1 0 00.45.31z" fill="#ba68c8"/><path d="M181.09 252.66l15.55 35.24-5.51 6.1.4 14.47 15.65-13.6a8.44 8.44 0 002.08-10l-12.58-26.16a10.76 10.76 0 00-9.89-6.08z" fill="#ebebeb"/><path d="M199.81 292.23a11.12 11.12 0 01-3.17-4.33l-1.38 1.51a7.09 7.09 0 004.55 2.82z" opacity=".3"/><path d="M166.36 436.14c-.66 2.1-3 3.3-5.16 3.48a25.86 25.86 0 01-6.52-.84c-4.85-.88-9.52 0-14.35-.12a20.84 20.84 0 01-4.73-.51 7.88 7.88 0 01-4-2.38 5.24 5.24 0 01-1.16-2.53 5 5 0 001.16 3.95 7.79 7.79 0 004 2.37 20.29 20.29 0 004.73.52c4.83.11 9.5-.76 14.35.12a25.4 25.4 0 006.52.83c2.2-.17 4.5-1.37 5.16-3.47a5.4 5.4 0 00.17-2.23 3.77 3.77 0 01-.17.81z" fill="#263238"/><path d="M166.24 432.13l-.89-4.41a6.74 6.74 0 00-.75-2.24 2.22 2.22 0 00-2-1.12c-2.66-.35-6.39-1.31-8.59.21a19.83 19.83 0 01-11.83 3.43c-2.2-.08-4.39-.53-6.57-.26s-4.44 1.48-5.09 3.58a4.11 4.11 0 00-.11 1.91 5.24 5.24 0 001.16 2.53 7.88 7.88 0 004 2.38 20.84 20.84 0 004.73.51c4.83.11 9.5-.76 14.35.12a25.86 25.86 0 006.52.84c2.2-.18 4.5-1.38 5.16-3.48a3.77 3.77 0 00.17-.81 10.23 10.23 0 00-.26-3.19z" fill="#37474f"/><path d="M153.4 420l-.19 5.74a2.28 2.28 0 002.11 2.35 35.89 35.89 0 005.78-.06 3.27 3.27 0 003-3.07l.23-4.24z" fill="#ffc3a7"/><path d="M190.86 416.9a4.4 4.4 0 01-.77 2.37 4.32 4.32 0 01-2.71 1.53 6.82 6.82 0 01-6.71-2.77c-.73-1-1.14-2.27-1.82-3.34a15.12 15.12 0 00-3.77-3.67 16 16 0 01-3.79-3.63 5.38 5.38 0 01-.73-4.86 4.59 4.59 0 00-.35.61 5.5 5.5 0 00.68 5.17 16 16 0 003.87 3.75 15.33 15.33 0 013.84 3.78c.7 1.1 1.12 2.37 1.86 3.44a6.92 6.92 0 006.85 2.85 4.38 4.38 0 002.77-1.57 5.34 5.34 0 00.8-3.29c0-.12-.01-.27-.02-.37z" fill="#263238"/><path d="M189.12 409.7c-1.74-3.06-5.34-5.28-8.11-7.44a10.48 10.48 0 00-5.38-2.45 5.06 5.06 0 00-5 2.56l-.06.16a5.38 5.38 0 00.73 4.86 16 16 0 003.79 3.63 15.12 15.12 0 013.77 3.67c.68 1.07 1.09 2.3 1.82 3.34a6.82 6.82 0 006.71 2.77 4.32 4.32 0 002.71-1.53 4.4 4.4 0 00.77-2.37v-.83a13.6 13.6 0 00-1.75-6.37z" fill="#37474f"/><path d="M181.56 407.05v5.21a8.75 8.75 0 008.11-.35l.49-4.7z" fill="#ffc3a7"/><path d="M191.53 312.46c1.56 4.69-.36 27-1.27 48.35 3.39 8.08 2.47 31 .52 47.32 0 0-3.39 2.08-9.52 0l-7.69-45-1.06-25.42s-1.93 22.55-4.15 37c2.09 11.08 1.56 13.16-3.58 47.24a12.86 12.86 0 01-11.54 0c-2.91-47.88-1.84-91.51-1.29-107.2z" fill="#455a64"/><path d="M173.16 353.22l-.87-20.73c5.35 0 10.32-4 14.11-7.8-3.64 6.47-10.68 9.34-10.68 9.34z" opacity=".3"/><path d="M151.13 275.48v40.59c23.91 10 39.4 1 41.5-3.74-1.1-16.52 2.8-35.85 2.5-44.06s-1.3-17.47-14-15.61L167.55 254l-6.87 1.67z" fill="#fff"/><path d="M181.09 246.17a3.61 3.61 0 002.65-.9 2.65 2.65 0 00.63-2.27 2.45 2.45 0 001.81-1.47 2.84 2.84 0 00-.42-2.48 4.13 4.13 0 002.69-2.2 4.34 4.34 0 00.12-3.56 3.86 3.86 0 002.71-2.63 4.2 4.2 0 00-.77-3.86 5.17 5.17 0 00.61-5.18 5.48 5.48 0 00-4.45-3 5.36 5.36 0 00-1.75-4.8 5.2 5.2 0 00-4.93-1 4.73 4.73 0 00-7.88-1.36 3.58 3.58 0 00-3.19-1.17 3.7 3.7 0 00-2.88 1.9 4.84 4.84 0 00-6.84 4.63 2.88 2.88 0 00-2 2.82 3 3 0 002.36 2.72 67.33 67.33 0 006.35 18.6c1.34 2.61 3 5.26 5.59 6.62 2.77 1.49 7.18.65 9.59-1.41z" fill="#455a64"/><path fill="#e6a181" d="M158.54 230.88l-2.8 4.87 3.07 1.14-.27-6.01z"/><path d="M159.51 222.39a45.31 45.31 0 00-.8 20.71 7 7 0 001.28 3.28 5.18 5.18 0 003.57 1.64 15.39 15.39 0 004-.38V254c4.82 1.13 9.77 1.58 13.54-1.32v-6.49a17.24 17.24 0 01-8.4.52c-3.33-1.79-4-7.87-3.53-9.47a2.5 2.5 0 002.6.92 3.5 3.5 0 002.16-1.72 7.23 7.23 0 00.81-2.7 4.91 4.91 0 00-.5-3.34 3.48 3.48 0 00-3.76-1.27 5.36 5.36 0 00-3.17 2.65 7.8 7.8 0 00-.56 1.21.75.75 0 01-1.46-.18 10 10 0 01.95-5.31 3.71 3.71 0 01-2.72-1.67 3.44 3.44 0 01-.52-3 10.31 10.31 0 01-3.49-.44zM112.8 268.93a170.23 170.23 0 0018.67 24 4.58 4.58 0 005.8.61c9.48-6.25 17.32-16.85 17.32-16.85l-10.28-7.06-8.9 11.56-16.82-16.55-1.11-9.2a2.27 2.27 0 00-1.34-1.8l-4.74-2.06a2.27 2.27 0 00-1.77 0l-2.77 1.15a1.22 1.22 0 00-.51 1.84 1.2 1.2 0 001.32.44l1.37-.4-3.22 2.39a2.54 2.54 0 00-1 2v1.64a2.55 2.55 0 001.13 2.12l.39.25a1.29 1.29 0 001.86-.45c.58 3.49 4.6 6.37 4.6 6.37z" fill="#ffc3a7"/><path d="M109 254.59l.86-.57a1.4 1.4 0 011-.2l3.92.77-3.67-1.26a1.38 1.38 0 00-1.56.48zM108.18 262.58c-.36-1.29-.57-3 0-3.65l-1.6.88.18 1.64z" fill="#e6a181"/><path d="M127.86 271.87a2.09 2.09 0 011.94.52l2.36 2.25a2.1 2.1 0 01.62 1.8v.21l-.68-.64c-8.4 2.67-7.49 11.06-7.49 11.06l1.19 1.5a2.08 2.08 0 01-2-.75l-2.93-3.7a2.08 2.08 0 01-.45-1.38c.11-2.36 1.02-9.26 7.44-10.87z" fill="#fff"/><path d="M127.86 271.87a2.09 2.09 0 011.94.52l2.36 2.25a2.1 2.1 0 01.62 1.8v.21l-.68-.64c-8.4 2.67-7.49 11.06-7.49 11.06l1.19 1.5a2.08 2.08 0 01-2-.75l-2.93-3.7a2.08 2.08 0 01-.45-1.38c.11-2.36 1.02-9.26 7.44-10.87z" fill="#fff"/><path d="M132.07 276l.68.64 2.83 2.68 1-1.53 11.48-14.95a19 19 0 0112.78-7.29l1.53-.18s3.07 12.89-3.52 20.07l-12.6 13.33a49.67 49.67 0 01-8.41 6.49A5.89 5.89 0 01130 294l-5.43-6.9s-.9-8.42 7.5-11.1z" fill="#fff"/><path d="M132.07 276l.68.64 2.83 2.68 1-1.53 11.48-14.95a19 19 0 0112.78-7.29l1.53-.18s3.07 12.89-3.52 20.07l-12.6 13.33a49.67 49.67 0 01-8.41 6.49A5.89 5.89 0 01130 294l-5.43-6.9s-.9-8.42 7.5-11.1z" fill="#ebebeb"/></g><g><path d="M319.8 377.83a41.33 41.33 0 005 2.93l-5.4 6.6a29.66 29.66 0 00-4.59-2.15c.5-4.97 4.99-7.38 4.99-7.38z" fill="#9c5857"/><path d="M326.7 394.75c0-6.61 4.55-9.89 6.63-8.82l-1.16-1.11a6.14 6.14 0 00-4 1.76 10 10 0 00-2.63 5.67 44.79 44.79 0 00-.28 6.35c0 2.12 0 4.69-.72 6.67a12.72 12.72 0 01-10.34-2.76 5.64 5.64 0 00-.08 1.64 11.94 11.94 0 0010.9 2.53c2.48-2.21 1.68-6.31 1.68-11.93z" fill="#f5f5f5"/><path d="M333.33 385.93c-2.08-1.07-6.63 2.21-6.63 8.82 0 5.62.8 9.72-1.7 11.93l.21-.05a36.45 36.45 0 006.39-3.29 2.81 2.81 0 001.46-2.68 22.18 22.18 0 01.38-6.42c.32-1.44.92-2.81 1.12-4.27a4.39 4.39 0 00-1.23-4.04z" fill="#455a64"/><path d="M333.33 385.93c-2.08-1.07-6.63 2.21-6.63 8.82 0 5.62.8 9.72-1.7 11.93l.21-.05a36.45 36.45 0 006.39-3.29 2.81 2.81 0 001.46-2.68 22.18 22.18 0 01.38-6.42c.32-1.44.92-2.81 1.12-4.27a4.39 4.39 0 00-1.23-4.04z" opacity=".3"/><path d="M333.33 385.93c-2.08-1.07-6.63 2.21-6.63 8.82 0 5.62.8 9.72-1.7 11.93l.21-.05a36.45 36.45 0 006.39-3.29 2.81 2.81 0 001.46-2.68 22.18 22.18 0 01.38-6.42c.32-1.44.92-2.81 1.12-4.27a4.39 4.39 0 00-1.23-4.04z" fill="#fff" opacity=".2"/><path d="M325 380.14c-3.67.91-5.25 3.93-6.57 7.27 1.36.75 2.61 1.19 3.1 2.65l-.08 1.17a3.71 3.71 0 00.24.49 6.3 6.3 0 01.37.53 1 1 0 01.13.62.52.52 0 01-.4.45.55.55 0 01-.48-.21l-.08 1a3.81 3.81 0 00.29.57 6.18 6.18 0 01.36.53 1 1 0 01.14.61.54.54 0 01-.4.46.61.61 0 01-.53-.25l-.13 1.88c-2.34 1.72-2.9 4.66-3 6.75a12 12 0 006.53.59c.76-2 .69-4.55.72-6.67a44.79 44.79 0 01.28-6.35 10 10 0 012.63-5.67 6.14 6.14 0 014-1.76 32.16 32.16 0 00-7.12-4.66z" fill="#37474f"/><path d="M322.19 392.87a1 1 0 00-.13-.62 6.3 6.3 0 00-.37-.53 3.71 3.71 0 01-.24-.49l-.14 1.88a.55.55 0 00.48.21.52.52 0 00.4-.45zM322 395.84a1 1 0 00-.14-.61 6.18 6.18 0 00-.36-.53 3.81 3.81 0 01-.29-.57l-.14 1.92a.61.61 0 00.53.25.54.54 0 00.4-.46zM321 397.93a5.81 5.81 0 00-5 1.4 5.69 5.69 0 00-1.77 3.18 13 13 0 003.81 2.17c.02-2.09.58-5.03 2.96-6.75z" fill="#fff"/><path d="M256 393.64c-.57 1.21-2.39 2.32-4.39 2.65a20.39 20.39 0 01-6-.38 39.18 39.18 0 00-9-.23 49.85 49.85 0 01-5.59.4 8.9 8.9 0 01-5.26-1.67 5.32 5.32 0 01-2-3.35 5.08 5.08 0 002 4.52 8.9 8.9 0 005.26 1.67 49.85 49.85 0 005.59-.4 39.18 39.18 0 019 .23c2 .27 4.17.85 6.17.52s3.81-1.44 4.38-2.65z" fill="#f5f5f5"/><path d="M234.15 390.09c1.68 0 1.07-2.49 2.66-4.15-.65 0-1.3.05-1.95.05-1.44 2.06-1.86 4.1-.71 4.1zM237.64 390c1.69 0 1.24-3 2.9-4.69a9.4 9.4 0 01-1.15.33c-.33.08-.66.13-1 .18-1.47 2.05-1.9 4.18-.75 4.18z" fill="#fff"/><path d="M254.24 384.28a2.29 2.29 0 00-.87-1.36l-9.07-.23a7.7 7.7 0 01-3.76 2.58c-1.66 1.73-1.21 4.69-2.9 4.69-1.15 0-.72-2.09.75-4.18-.52.08-1 .13-1.58.16-1.59 1.66-1 4.15-2.66 4.15-1.13 0-.73-2 .71-4.1h-1.27c-.39 0-.77 0-1.16-.07-3.33 2.64-3.62 5.5-3.19 10a11.43 11.43 0 001.74.19 49.85 49.85 0 005.59-.4 39.18 39.18 0 019 .23 20.39 20.39 0 006 .38c2-.33 3.82-1.44 4.39-2.65z" fill="#455a64"/><path d="M232.43 385.91a14.34 14.34 0 00-4.53 0 5.4 5.4 0 00-4.08 3.55 3.93 3.93 0 00-.07 1.6 5.32 5.32 0 002 3.35 7.72 7.72 0 003.52 1.48c-.46-4.48-.17-7.34 3.16-9.98z" fill="#fff"/><path d="M244 380.11v4.37a1.8 1.8 0 001.8 1.79h4.57a2.94 2.94 0 002.94-2.85l.11-3.31z" fill="#9c5857"/><path d="M278 306.91a55.33 55.33 0 00-.58 6.12l-26.87 7.54a18.41 18.41 0 00-13.14 21c2.58 14.52 5.87 34.2 5.66 39.45 3.94 3 11.1 0 11.1 0 .65-16.26 3.93-25.65 2-38.91l29.07-5.83-5.8 21a13.77 13.77 0 007.73 16.27L315.56 386a7.91 7.91 0 015.47-7.55c-9.11-8.2-12.76-14.83-22.39-17.18 0 0 9.24-20.3 15.23-30.58s2.95-20.45-1.13-27.66z" fill="#ba68c8"/><path d="M278 306.91a55.33 55.33 0 00-.58 6.12l-26.87 7.54a18.41 18.41 0 00-13.14 21c2.58 14.52 5.87 34.2 5.66 39.45 3.94 3 11.1 0 11.1 0 .65-16.26 3.93-25.65 2-38.91l29.07-5.83-5.8 21a13.77 13.77 0 007.73 16.27L315.56 386a7.91 7.91 0 015.47-7.55c-9.11-8.2-12.76-14.83-22.39-17.18 0 0 9.24-20.3 15.23-30.58s2.95-20.45-1.13-27.66z" opacity=".3"/><path d="M312.78 303a4.86 4.86 0 01-.51-1.84l-.28-4.58-32.68 2.1c-.43 2.29-.87 5.1-1.3 8.27a48.57 48.57 0 0034.77-3.95z" fill="#9c5857"/><path d="M291.61 260.62l-8.74 1.72c-1.93 3.53-3.9 6.86-5.83 10.39-1.46 2.67-3 5.5-2.85 8.53a8.68 8.68 0 005.24 7.53l-1 11.94c13.73 4.2 30.51.51 34.2-2.67 1.09-5 2.05-10.32 3.13-15.32a52.31 52.31 0 001.48-9.86 17.36 17.36 0 00-2.31-9.56l-.05-.08a10.7 10.7 0 00-10.73-4.61z" fill="#ba68c8"/><path d="M291.61 260.62l-8.74 1.72c-1.93 3.53-3.9 6.86-5.83 10.39-1.46 2.67-3 5.5-2.85 8.53a8.68 8.68 0 005.24 7.53l-1 11.94c13.73 4.2 30.51.51 34.2-2.67 1.09-5 2.05-10.32 3.13-15.32a52.31 52.31 0 001.48-9.86 17.36 17.36 0 00-2.31-9.56l-.05-.08a10.7 10.7 0 00-10.73-4.61z" fill="#fff" opacity=".2"/><path fill="#783130" d="M279.58 239.66l-2.7 4.7 2.96 1.09-.26-5.79z"/><path d="M279.28 237.57c.43-4.11 1.64-8 4.32-10a22.23 22.23 0 003.08 14.73 6.45 6.45 0 012-3.53 3.42 3.42 0 015.76 1.28 5 5 0 01-6.25 6.6 9.62 9.62 0 007.38 7.48 12.38 12.38 0 007.16-.68l1.12 5.55c-4.52 4.82-12.24 1.58-12.24 1.58l-1-5.46c-8.89.53-9.71.38-10.69-4.52a47.71 47.71 0 01-.64-13.03z" fill="#9c5857"/><path d="M291.5 220.33c-4.21-1.5-9.2.77-11.49 4.6s-2.18 8.8-.45 12.92a14.9 14.9 0 014-10.24c-.84 6.3-.11 10.89 3.08 14.73a4.59 4.59 0 011.08 2.94c0 1.06-.25 2.11-.18 3.16.16 2.22 1.65 4.08 3.06 5.8s2.87 3.64 2.91 5.86c.08 3.68-1.05 7.58-1.26 11.26a17 17 0 002.49 10.55 13.94 13.94 0 0013.86 5.55 16.2 16.2 0 0011.62-9.73 19.36 19.36 0 00-.58-15.34c-1.87-4-4.94-7.33-6.74-11.36-2-4.46-2.29-9.45-2.87-14.3s-1.57-9.88-4.63-13.69-9.67-5.13-13.9-2.71z" fill="#263238"/><path d="M199.16 239.18a4.45 4.45 0 00-4.93-.6 5 5 0 00-2.6 4.31 4.3 4.3 0 001.24 3.18 3.2 3.2 0 003.24.77 1.89 1.89 0 01-1.48-1.06 1.67 1.67 0 01.24-1.69c.71-.85 2-.76 3-1.21 1.36-.59 2.35-2.72 1.29-3.7z" fill="#37474f"/><path d="M199.06 241a1.25 1.25 0 01-.61-2.43L215 234l.83 3.3z" fill="#e0e0e0"/><path d="M265.51 223a.78.78 0 00-.93-.57l-50.81 11.4a2.17 2.17 0 00-1.62 2.63 2.15 2.15 0 002.67 1.54L265 223.94a.78.78 0 00.51-.94z" fill="#455a64"/><path d="M192.08 243.44a.62.62 0 00.69 0c.27-.25.21-.75.51-1a.81.81 0 01.83.08 1.19 1.19 0 00.81.26c.32-.06.51-.39.73-.62a1.23 1.23 0 011.13-.42.8.8 0 01.61.94.81.81 0 01-.41.48 3.71 3.71 0 00-2.11.92 1.67 1.67 0 00-.24 1.69 1.89 1.89 0 001.48 1.06 3.2 3.2 0 01-3.24-.77 4.32 4.32 0 01-1.24-3.12 1.25 1.25 0 00.45.5z" fill="#ba68c8"/><path d="M281.3 261.56c-5.07.36-11.45.89-17.74.77a71.32 71.32 0 01-13.55-1.5S239.4 247 236.29 241.56l-1.11-9.2a2.27 2.27 0 00-1.34-1.8l-4.74-2.06a2.27 2.27 0 00-1.77 0l-2.77 1.15a1.22 1.22 0 00-.51 1.84 1.2 1.2 0 001.32.44l1.37-.4-3.22 2.39a2.54 2.54 0 00-1 2v1.64a2.52 2.52 0 001.13 2.11l.39.26a1.29 1.29 0 001.86-.45c.51 3 3.51 5.49 4.38 6.17l7.68 19.87a14 14 0 0010.65 8.75l12.31 2.15 16.28 2.84a10.89 10.89 0 0012.17-7.81v-.17a7.8 7.8 0 00-8.07-9.72z" fill="#9c5857"/><path d="M226.74 231.52l.86-.57a1.36 1.36 0 011-.2l3.92.77-3.67-1.26a1.38 1.38 0 00-1.56.48zM225.88 239.51c-.36-1.29-.57-3 0-3.65l-1.6.88.18 1.64z" fill="#783130"/><path d="M307.62 326.33c-4.61 6-13.1 8.33-22.34 9.91l-1.11 4c3.01-.63 17.19-4.17 23.45-13.91z" opacity=".3"/><path d="M192.08 243.44a.62.62 0 00.69 0c.27-.25.21-.75.51-1a.81.81 0 01.83.08 1.19 1.19 0 00.81.26c.32-.06.51-.39.73-.62a1.23 1.23 0 011.13-.42.8.8 0 01.61.94.81.81 0 01-.41.48 3.71 3.71 0 00-2.11.92 1.67 1.67 0 00-.24 1.69 1.89 1.89 0 001.48 1.06 3.2 3.2 0 01-3.24-.77 4.32 4.32 0 01-1.24-3.12 1.25 1.25 0 00.45.5z" opacity=".1"/></g><g><path d="M248 178.79a14.44 14.44 0 00-16.1-1.13 16.26 16.26 0 00-7.72 14.44 14.14 14.14 0 004.54 10.13 10.45 10.45 0 0010.66 1.94 6.07 6.07 0 01-5-3.21 5.36 5.36 0 01.51-5.52c2.16-2.87 6.44-2.79 9.64-4.42 4.21-2.14 7.09-9.22 3.47-12.23z" fill="#455a64"/><path d="M248 184.84a4.07 4.07 0 01-2.39-7.78l53-17.85 3.26 10.58z" fill="#e0e0e0"/><path d="M460.81 115.08a2.55 2.55 0 00-3.12-1.71l-163.14 45.57a7 7 0 00-4.81 8.79 7 7 0 008.92 4.57l160.53-54.05a2.55 2.55 0 001.62-3.17z" fill="#455a64"/><path d="M460.81 115.08a2.34 2.34 0 00-.37-.72 2.53 2.53 0 01-1.75 2.29L297.54 168.8a7 7 0 01-8.1-3 7.38 7.38 0 00.3 1.91 7 7 0 008.92 4.57l160.53-54.05a2.55 2.55 0 001.62-3.15z" opacity=".3"/><path d="M225.71 193.81a2 2 0 002.24-.23c.86-.84.57-2.46 1.51-3.2a2.66 2.66 0 012.7.14 4 4 0 002.69.7c1-.26 1.57-1.34 2.25-2.15a4 4 0 013.6-1.53 2.62 2.62 0 012.16 3 2.79 2.79 0 01-1.27 1.62c-2.53.74-5.15 1.29-6.69 3.33a5.36 5.36 0 00-.51 5.52 6.07 6.07 0 005 3.21 10.45 10.45 0 01-10.66-1.94 14.12 14.12 0 01-4.52-9.94 4 4 0 001.5 1.47z" fill="#ba68c8"/><path d="M225.71 193.81a2 2 0 002.24-.23c.86-.84.57-2.46 1.51-3.2a2.66 2.66 0 012.7.14 4 4 0 002.69.7c1-.26 1.57-1.34 2.25-2.15a4 4 0 013.6-1.53 2.62 2.62 0 012.16 3 2.79 2.79 0 01-1.27 1.62c-2.53.74-5.15 1.29-6.69 3.33a5.36 5.36 0 00-.51 5.52 6.07 6.07 0 005 3.21 10.45 10.45 0 01-10.66-1.94 14.12 14.12 0 01-4.52-9.94 4 4 0 001.5 1.47z" opacity=".1"/><path d="M395.05 290.26a14.6 14.6 0 009.78-7.39c-8.42-3.96-9.78 7.39-9.78 7.39z" fill="#37474f"/><path d="M396.54 287.28l4.34 6.85 6.66-4.63-3.15-7.16c-5.07 0-7.85 4.94-7.85 4.94z" fill="#ffa8a7"/><path d="M406.87 302.12c0-5.86 4-8.76 5.88-7.81l-1-1a5.45 5.45 0 00-3.56 1.56 8.88 8.88 0 00-2.33 5 40.59 40.59 0 00-.25 5.62 18.23 18.23 0 01-.63 5.91 11.2 11.2 0 01-9.16-2.44 4.72 4.72 0 00-.07 1.45 10.59 10.59 0 009.65 2.25c2.18-1.94 1.47-5.56 1.47-10.54z" fill="#263238"/><path d="M404.94 311.43a18.23 18.23 0 00.63-5.91 40.59 40.59 0 01.25-5.62 8.88 8.88 0 012.33-5 5.45 5.45 0 013.56-1.56 57.15 57.15 0 01-3.93-4.15 8.24 8.24 0 00-7.43 5.08 13.69 13.69 0 011.94 3.71l-.51 7a5.06 5.06 0 00-4.43 1.24 5 5 0 00-1.57 2.81 11.2 11.2 0 009.16 2.4z" fill="#37474f"/><path d="M412.75 294.31c-1.85-.95-5.88 1.95-5.88 7.81 0 5 .71 8.6-1.51 10.57l.19-.05a32.22 32.22 0 005.66-2.91 2.52 2.52 0 001.3-2.38 19.23 19.23 0 01.33-5.68c.28-1.28.81-2.49 1-3.78a3.89 3.89 0 00-1.09-3.58z" fill="#37474f"/><path d="M412.75 294.31c-1.85-.95-5.88 1.95-5.88 7.81 0 5 .71 8.6-1.51 10.57l.19-.05a32.22 32.22 0 005.66-2.91 2.52 2.52 0 001.3-2.38 19.23 19.23 0 01.33-5.68c.28-1.28.81-2.49 1-3.78a3.89 3.89 0 00-1.09-3.58z" fill="#fff" opacity=".1"/><path d="M358 314.62c-.56 1.77-2.5 2.78-4.36 2.93a21.57 21.57 0 01-5.51-.7c-4.1-.75-8.05 0-12.14-.11a17.18 17.18 0 01-4-.43 6.61 6.61 0 01-3.42-2 4.51 4.51 0 01-1-2.14 4.22 4.22 0 001 3.34 6.61 6.61 0 003.42 2 17.18 17.18 0 004 .43c4.09.1 8-.64 12.14.11a21.57 21.57 0 005.51.7c1.86-.15 3.8-1.16 4.36-2.93a4.63 4.63 0 00.15-1.89 3.41 3.41 0 01-.15.69z" fill="#263238"/><path d="M357.91 311.22c-.25-1.24-.5-2.48-.76-3.72a5.46 5.46 0 00-.63-1.9 1.89 1.89 0 00-1.65-1c-2.25-.29-5.4-1.11-7.27.18a16.68 16.68 0 01-10 2.91 34.41 34.41 0 00-5.55-.22c-1.84.22-3.76 1.25-4.3 3a3.56 3.56 0 00-.1 1.62 4.51 4.51 0 001 2.14 6.61 6.61 0 003.42 2 17.18 17.18 0 004 .43c4.09.1 8-.64 12.14.11a21.57 21.57 0 005.51.7c1.86-.15 3.8-1.16 4.36-2.93a3.41 3.41 0 00.15-.69 8.91 8.91 0 00-.32-2.63z" fill="#37474f"/><path d="M347 299.59l-.08 6.19a1.91 1.91 0 001.78 2 30.64 30.64 0 004.89-.05 2.76 2.76 0 002.5-2.59l.11-4.92z" fill="#ffa8a7"/><path d="M358.19 301.32a14.22 14.22 0 01-7.24 1.17c-1.9-.29-4.45-.86-5.74-2.28.4-18.07-.11-41.84-.28-48.69a36 36 0 01.12-3.89l3.95-45.15 38-3.43c3.13 9.16 3 47 2.74 50.15 9.49 9.11 10.89 22.52 15.05 33.67-4.25-.29-9.78 7.39-9.78 7.39L375 255.86a15.29 15.29 0 01-1.84-5.07c-1.11-6.47-3.84-22.56-4.11-26-3.13 14.59-8.16 30.28-8.16 30.28 3.51 14.93-1.79 33.4-2.7 46.25z" fill="#455a64"/><path d="M380.54 210.65a20.32 20.32 0 01-9.68 2.82s-.56 5.24-1.86 11.31c.11 1.43.65 5 1.31 9.21.43-5.15 1.25-13 2.68-18.23.01 0 5.27-1.56 7.55-5.11z" opacity=".3"/><path d="M349 165.24v37.24c21.93 9.19 36.14.89 38.06-3.43-1-15.16 2.19-32.86 3.06-40.35.91-7.87 3.62-17-13.64-14.39L364 145.52l-6.3 1.53z" fill="#ba68c8"/><path d="M356.66 116.54c-2.66-1-5.26-4.83-2.6-6.51.74-.56 2.91.09 4.66 0-1.53-1.38-1.9-3-1.14-3.56s2.82 1.44 6.54 1.08 16.54-4.51 18.15 4.86a2.46 2.46 0 013.76-.64l-2.66 1.88c3.95 5.56 2.66 12-6.91 24.7a7 7 0 01-9.35 1.35l-3.95-9.7-3.86-4.68z" fill="#263238"/><path fill="#f28f8f" d="M355.78 124.33l-2.58 4.47 2.82 1.04-.24-5.51z"/><path d="M356.66 116.54a41.79 41.79 0 00-.74 19 6.42 6.42 0 001.19 3 4.69 4.69 0 003.26 1.5 13.77 13.77 0 003.67-.35v5.82c4.42 1 9 1.45 12.42-1.21v-6a15.78 15.78 0 01-7.71.49c-3.05-1.65-3.66-7.22-3.23-8.69a2.27 2.27 0 002.38.83 3.17 3.17 0 002-1.57 6.43 6.43 0 00.74-2.48 4.53 4.53 0 00-.45-3.06 3.21 3.21 0 00-3.46-1.17 5 5 0 00-2.91 2.43 7.54 7.54 0 00-.51 1.12.69.69 0 01-1.34-.17 9.18 9.18 0 01.88-4.87 3.36 3.36 0 01-2.49-1.53 3.17 3.17 0 01-.49-2.79 9.6 9.6 0 01-3.21-.3zM336.16 169.56l-4.55 9.05c-2.86-1.24-12.33-2.27-17.58-5.59-2.33-4.52-3.93-5.62-4.67-6.93a15.86 15.86 0 01-1.08-2.5 1.14 1.14 0 00-1.29-.74 1.13 1.13 0 00-.94 1.11 15 15 0 001.1 4.43 19.94 19.94 0 01-5.86-6.1 2.29 2.29 0 00-3.29-.58l-.56.43a4.17 4.17 0 00-1.66 3.49l.07 1.88a6.49 6.49 0 002.12 4.55l1.31 1.18a26.36 26.36 0 004.8 3.46l4 2.23c9.28 6.73 17.08 10.36 24.11 11.68a5.37 5.37 0 004.9-1.54A79.45 79.45 0 00346 177.5z" fill="#ffa8a7"/><path d="M329.43 182.18a15.39 15.39 0 012.18-3.57 15 15 0 00-2.11-.66 5.83 5.83 0 00-.07 4.23z" opacity=".2"/><path d="M357.74 147.05c-10.26.78-15.41 5.7-23.11 23.87a15 15 0 0012.59 8c4.92-8 10.67-14.83 13.41-21.21s-2.89-10.66-2.89-10.66z" fill="#ba68c8"/></g></svg>