<svg xmlns="http://www.w3.org/2000/svg" viewBox="0 0 500 500"><path d="M464.5 110.18q-2.38-4-5-7.91c-23.17-34.34-63.06-57.83-102.3-68.45a231.88 231.88 0 00-52.71-7.7c-116.62-3.95-163.07 88-201.61 111.68S5 202 9 287s65.22 165 183.81 170 126.5-48.42 192.71-68.19c43.82-13.08 75-57.26 90.2-98.08 20.78-55.65 19.8-127.92-11.22-180.55z" fill="#ff725e"/><path d="M464.5 110.18q-2.38-4-5-7.91c-23.17-34.34-63.06-57.83-102.3-68.45a231.88 231.88 0 00-52.71-7.7c-116.62-3.95-163.07 88-201.61 111.68S5 202 9 287s65.22 165 183.81 170 126.5-48.42 192.71-68.19c43.82-13.08 75-57.26 90.2-98.08 20.78-55.65 19.8-127.92-11.22-180.55z" fill="#fff" opacity=".7"/><g opacity=".3" stroke="#000" stroke-linecap="round" stroke-linejoin="round"><path fill="none" d="M24.58 293.94H233.3v7.67H24.58z"/><path fill="none" d="M28.49 301.58H229.5v99.89H28.49zM11 414h235"/><path fill="none" d="M29.75 401.42h7v11.83h-7zM220.46 401.42h7v11.83h-7zM126.67 234.33h46a8.33 8.33 0 018.33 8.33V294h0-62.67 0v-51.33a8.33 8.33 0 018.34-8.34z"/><path fill="#fff" d="M69.19 292.31h31.44v1.87H69.19z"/><path d="M50.24 291.77h-13.7a2.54 2.54 0 01-2.54-2.41 2.27 2.27 0 01.08-.8L42 265.85c-.13-.36-.26-.71-.38-1.07a9.31 9.31 0 01-.37-2.06.93.93 0 00-.46.53L32.17 288a4.47 4.47 0 00-.17 1.5 4.55 4.55 0 004.54 4.31h13.7a1 1 0 100-2z" fill="none"/><path d="M46.71 229.44l15.14 58-1.66 1.24s-19.06-14.92-19.06-27.35 3.32-31.48 3.32-31.48z" fill="none"/><path fill="none" d="M46.71 229.44l-2.26.39 15.74 58.83 1.66-1.24-15.14-57.98z"/></g><g opacity=".3" fill="none" stroke="#000" stroke-miterlimit="10"><circle cx="52.11" cy="143.08" r="25.89"/><circle cx="52.11" cy="143.08" r="21.18" transform="rotate(-22.5 52.101 143.084)"/><path d="M44.83 149.41l7.28-6.33v19.61"/></g><g opacity=".3" fill="none" stroke="#000" stroke-linecap="round" stroke-linejoin="round"><path d="M104 112h75v83h-75z"/><path d="M108.52 117h65.96v73h-65.96z"/><path d="M126.59 137h29.82v33h-29.82z"/></g><g opacity=".3" fill="none" stroke="#000" stroke-miterlimit="10"><path d="M286 319h185.1M258.46 390.69s51 4.43 63.24 2.21-11.09-13.31 11.1-14.42 53.25 11.1 72.12 11.1 6.65-16.65 14.42-21.09 46.6 0 52.15 0"/><path d="M264.21 375.12s26.52 1.24 43.78 0-28.36-8-4.31-11.71 37 4.31 59.81 7.4 12.95-1.85 16.65-11.1 73.37 3.08 90.64 3.08 5.55 1.23-1.85-6.17 17.88-3.7 17.88-3.7M407.27 379.13c0 1.87-5.25 3.39-11.72 3.39s-11.71-1.52-11.71-3.39 5.24-3.39 11.71-3.39 11.72 1.52 11.72 3.39z"/><path d="M329 371.73c0 1.53-2.76 2.78-6.17 2.78s-6.16-1.25-6.16-2.78 2.76-2.77 6.16-2.77 6.17 1.24 6.17 2.77zM306.76 386.22c0 .68-1.66 1.23-3.7 1.23s-3.7-.55-3.7-1.23 1.64-1.22 3.7-1.22 3.7.54 3.7 1.22z"/></g><g fill="none" stroke="#000" stroke-miterlimit="10"><path d="M457.25 133s1.95-11.67-10.37-16.86-18.16 2.59-21.41 10.38-3.24 2.59-14.26 3.24-7.78 11-12.32 14.91-14.27-4.54-19.46 0A44 44 0 00371 155h107.65s3.24-9.08-3.24-14.27S457.9 144 457.25 133zM362 193.31s1.66-10-8.9-14.46-15.57 2.22-18.35 8.9-2.78 2.22-12.23 2.78-6.68 9.45-10.57 12.79-12.23-3.9-16.68 0a37.73 37.73 0 00-7.23 8.89h92.3s2.79-7.78-2.78-12.23-15.05 2.78-15.56-6.67z" opacity=".3"/></g><g opacity=".3" fill="none" stroke="#000" stroke-miterlimit="10"><circle cx="375.2" cy="64.62" r="21.85" transform="rotate(-12.85 375.141 64.637)"/><path d="M375.2 92.3v15.3M375.2 18v15.3M345.7 62.8h-15.3M420 62.8h-15.3M354.34 83.66l-10.82 10.82M406.88 31.12l-10.82 10.82M404.7 62.8H420M330.4 62.8h15.3M396.06 83.66l10.82 10.82M343.52 31.12l10.82 10.82"/></g><path fill="none" stroke="#000" stroke-linecap="round" stroke-linejoin="round" opacity=".3" d="M250 31v438"/><g><path d="M319 135.13l12.34-9-16.67-34s-1-7.33 5.33-5.33 20.67 19.33 27.34 26 9.33 10.66 8.33 14-32.33 28.66-32.33 28.66zM175.79 361.39s-26.24 17.07-35.09 23.71a93.9 93.9 0 01-22.13 12c-3.47 1.26-11.69 0-13.91 2.53s-2.84 9.16-2.84 12.32-4.11 18.66-5.69 24.66 2.84 8.22 4.74 8.22 1.9-4.74 4.11-7.9 13-22.76 21.81-27.19 49.32-18.65 61.33-24.66 16.44-11.69 16.44-11.69z" fill="#fff" stroke="#263238" stroke-linecap="round" stroke-linejoin="round"/><path d="M193.16 296.74L185 347.88s-5.43.91-6.33 2.26-5.88 10.41-5.88 10.41 10.4 10 21.72 14.94a89 89 0 0022.17 6.33L242 320.27z" fill="#ff725e"/><g opacity=".5" fill="#fff"><path d="M211.42 361c3.55-2.26 7.6.91 12 4.6l4.09-9.95c-8.11-5.35-19.86-12.65-24.51-9.83-6.33 3.8-4.22 10.13-9.7 13.93-4.06 2.81-10.18-4.52-15.15-8.71-1.58 2.68-5.33 9.51-5.33 9.51a95.1 95.1 0 0017 12.55c1.22-4 .92-9.59 10.26-7.86 9.07 1.68 5 8.43 4.51 13.88a84.91 84.91 0 0012.15 2.7l4.11-10c-4.46-5.06-12.97-8.55-9.43-10.82z"/><path d="M185.67 343.74c8.28.45 15.75-22.27 23.22-14.8s12.61 25.11 21.38 19.92l5.76-14a7.93 7.93 0 00-2.24-.88c-7.17-1.68-17.72-7.59-9.7-10.12 4.37-1.38 10.37-.25 15.13 3.25l2.82-6.86-30.19-14.53-4.65 2.94s3 10.55-5.48 13.51c-5.16 1.8-9.38-.33-12.45-1z"/></g><path fill="#263238" stroke="#263238" stroke-linecap="round" stroke-linejoin="round" d="M191.82 301.27l38.45 47.59 8.28-18.14-47.91-32.2 1.18 2.75z"/><path d="M193.16 296.74L185 347.88s-5.43.91-6.33 2.26-5.88 10.41-5.88 10.41 10.4 10 21.72 14.94a89 89 0 0022.17 6.33L242 320.27z" fill="none" stroke="#263238" stroke-linecap="round" stroke-linejoin="round"/><path d="M91.07 398.7s.63 29.08 1.26 37.62 6.33 12.64 8.22 12 2.22-2.85.32-3.48-6.64-4.11-6.64-12 1.58-32.25 1.58-34.14-3.48-1.58-4.74 0z" fill="#fff" stroke="#263238" stroke-linecap="round" stroke-linejoin="round"/><path fill="#263238" stroke="#263238" stroke-linecap="round" stroke-linejoin="round" d="M95.18 414.19l21.17 6.67-6.73 10.17-15.07-4.83.63-12.01zM123.55 279.67l12.1-10.99 23.69 22.88-10.95 11.95-2.18-2.69 8.56-9.9-19.12-18.56-10.21 9.8-1.89-2.49z"/><path d="M118.11 379.35l-69.82-64.9a5.12 5.12 0 01-.21-7.23l47.13-50.09a5.11 5.11 0 017.22-.22l69.82 64.91a5.11 5.11 0 01.22 7.22l-47.13 50.09a5.12 5.12 0 01-7.23.22z" fill="#fff" stroke="#263238" stroke-linecap="round" stroke-linejoin="round"/><path fill="#263238" stroke="#263238" stroke-linecap="round" stroke-linejoin="round" d="M163.94 314.8l-3.76-3.54-53.99 57.66 3.76 3.54 53.99-57.66zM56.85 322.5l3.76 3.54 54-57.67-3.76-3.54-54 57.67z"/><path d="M187.12 200.06s-9 4.9-10.63 7.76-23.28 56.78-23.28 56.78-15.93 10.21-15.11 13.07 7.35 10.21 7.35 10.21h5.72c1.22 0 9-18 11.44-22.06S192 220.48 192 220.48l3.67-2z" fill="#fff" stroke="#263238" stroke-linecap="round" stroke-linejoin="round"/><path d="M260 158.8s-34.66 6-37.33 9.33-39.67 31-39.67 31l15.67 26 21-15.67s-25 58-24.67 59 35.34 21.34 44 22.34 12.34 1 12.34 1 26.33-61.67 31.66-68.34 15.67-41 15.67-41l28.67-18.66-6-31L287 151.13z" fill="#ff725e" stroke="#263238" stroke-linecap="round" stroke-linejoin="round"/><path d="M281.57 206.07l8.6-44.07-4.3-3.22-13.26-3.56L260 158.8s-4.57.79-10.51 1.95z" fill="#fff" stroke="#263238" stroke-linecap="round" stroke-linejoin="round"/><path fill="none" stroke="#263238" stroke-linecap="round" stroke-linejoin="round" d="M219.67 209.46l17.66-11.6M228.08 203.81l11.23-1.32M298.67 182.46l3.63-16.33M298.61 181.5l7.68-15.06"/><path d="M309.14 117s2.95 12.12 3.61 13.76 3.25 4.6 3.25 7.24-4.91 4.58-4.91 4.58-.66 15.4-2.95 17.37-19.33-2-19.33-2l-3.93 12.12-5.57 24.25-22.28-34.4 6.56-10.49-5.9-19.33 50.12-17z" fill="#fff" stroke="#263238" stroke-linecap="round" stroke-linejoin="round"/><path fill="#263238" stroke="#263238" stroke-linecap="round" stroke-linejoin="round" d="M288.83 157.96l-3.78-1.74-.15 13.86 3.93-12.12zM298 125.84s.82 7.3 6.7 9.33 6.89-4.46 6.69-6.69-.81-5.88-.81-5.88a18.46 18.46 0 00-12.58 3.24z"/><path fill="#263238" stroke="#263238" stroke-linecap="round" stroke-linejoin="round" d="M298.04 125.84l-18.65 5.88.81 1.02 18.66-3.65-.82-3.25zM310.62 122.6s1.42-2 3.24.61-.2 8.11-.2 8.11-2.84-5.48-3.04-8.72z"/><path d="M299.87 142.67a8.53 8.53 0 005.68 3.45" fill="none" stroke="#263238" stroke-linecap="round" stroke-linejoin="round"/><path d="M304.87 114.08l-47.16 16 5.9 19.33-.19.3c1.64.42 4.31.86 6.25.06 3-1.25 9.5-6.5 9.5-6.5l1-10.56 5 3.31 1.25-.75c1.25-.75 1-6.75 1-6.75s.75-.5 4.75-3.75c2.97-2.39 9.53-7.97 12.7-10.69z" fill="#263238" stroke="#263238" stroke-linecap="round" stroke-linejoin="round"/><path d="M282.61 136.34s-4.26-9.83-9.18-4.59 4.26 13.43 5.57 13.76a4.72 4.72 0 002.95-.65 15 15 0 003.61 7.53" fill="#fff" stroke="#263238" stroke-linecap="round" stroke-linejoin="round"/><path fill="#263238" stroke="#263238" stroke-linecap="round" stroke-linejoin="round" d="M239.78 162.78L256.07 280l3.17-7.25-13.58-111.33-5.88 1.36z"/><path d="M260.14 270.94S252 287.69 252 289.05s11.32 6.79 13.58 6.33 6.79-12.67 7.7-17.65-9.52-9.05-13.14-6.79z" fill="#263238" stroke="#263238" stroke-linecap="round" stroke-linejoin="round"/><path d="M348.1 413.55s5.21-.64 2.93 6.15a27.06 27.06 0 01-11.94 14.93c-5.3 3.14-21.33 10.91-27.08 11.59s-7.21-4.19-2-8.43S339.17 420 341 418.2s7.1-4.65 7.1-4.65z" fill="#fff" stroke="#263238" stroke-linecap="round" stroke-linejoin="round"/><path d="M271 331.14a122.15 122.15 0 0015.76 39.22c16.07 25.47 21.64 56.08 23.73 65A7.18 7.18 0 00321 440a8.83 8.83 0 00.9-.56c5.2-3.54 11.75-7.18 11.75-7.18s11.26-7.6 12.9-10 3.53-14.32 3.37-16.57-4.55-.14-6.26 1.35a39 39 0 01-6.1 3.6l-16.89 4.83s-8.07-33.89-9.58-41.94c-4.8-25.5-10.65-58.74-14.72-62.36S285 305.79 285 305.79z" fill="#fff" stroke="#263238" stroke-linecap="round" stroke-linejoin="round"/><path d="M325.86 413.87s.45 15.67 3.78 23.72l12.18-6.11s-2.36-15.11-2.45-16.48a30.91 30.91 0 00-1.53-5.13s-8.03 1.23-11.98 4z" fill="#263238" stroke="#263238" stroke-linecap="round" stroke-linejoin="round"/><path d="M254.1 131.75l3.07-21.47a8.32 8.32 0 015.83-6.78l29.12-8.77a8.58 8.58 0 019.92 4l8.74 15.36s38.33-11.14 35.71-7.53-53.73 16-75.68 23.26-40.95 19.33-42.26 18 25.55-16.07 25.55-16.07z" fill="#fff" stroke="#263238" stroke-linecap="round" stroke-linejoin="round"/><path d="M322.34 88.8s-7-5.67-12.67-4.67-27 3.33-29 4.67-8 10.33-8 10.33 0 .67 1.67.67 7.66-6.67 7.66-6.67l2-.33s-7.33 6-6 7.66 5.34-1.66 6.34-2.33S290 94.8 290 94.8l7.34-1s-7 5.66-8.67 7.33-1.33 3.67 1.33 2 10.34-6.67 10.34-6.67 5-1.66 6.66-2.33 5-2.33 5-2.33l5 2.66" fill="#fff" stroke="#263238" stroke-linecap="round" stroke-linejoin="round"/><path fill="none" stroke="#263238" stroke-linecap="round" stroke-linejoin="round" d="M284 92.8l6.62-2.38"/><path d="M196.33 266s-10 22.62-8.15 30.32 74.22 54.76 74.22 54.76l27.6-45.29-38-16.74s-40.28-8.15-55.67-23.05z" fill="#ff725e"/><g opacity=".5" fill="#fff"><path d="M252 289.05l-.63-.14a9.15 9.15 0 010 2.89c-.67 2.53-20.08-1.69-17.13 5.91s22 4.22 25.75 9.28-6.75 17.31-16 13.09-18.15-16.46-19.83-7.18c-.68 3.72.54 8.93 2.28 13.93 4.22 2.93 8.43 5.8 12.39 8.49-4-5.72-6.34-10.42-2-9.33 10.13 2.53 17.3 16.88 23.21 14.35s-4.22-20.26 2.53-25.33 13.93 2.11 16.46-4.64-9.71-6.75-15.61-11.82c-2.21-1.89-2.77-3.83-2.43-5.57z"/><path d="M203 299.4a27.65 27.65 0 00-8.19 4c3.8 3.23 9 7.19 14.73 11.43a7.7 7.7 0 011.48-6.6c5.91-7.18 17.31-1.27 19.84-9.29s-13.51-9.7-10.13-18.14c.12-.3.24-.58.37-.85a112.58 112.58 0 01-14.8-6.84c-2.65 1.36-6.84 4.57-1.61 9.8 7.16 7.2 7.58 13.95-1.69 16.49z"/></g><path d="M196.33 266s-10 22.62-8.15 30.32 74.22 54.76 74.22 54.76l27.6-45.29-38-16.74s-40.28-8.15-55.67-23.05z" fill="none" stroke="#263238" stroke-miterlimit="10"/></g></svg>